G04 #@! TF.FileFunction,Copper,L2,Bot,Signal*
%FSLAX46Y46*%
G04 Gerber Fmt 4.6, Leading zero omitted, Abs format (unit mm)*
G04 Created by KiCad (PCBNEW 4.0.7) date 06/10/18 23:46:38*
%MOMM*%
%LPD*%
G01*
G04 APERTURE LIST*
%ADD10C,0.100000*%
%ADD11C,2.200000*%
%ADD12C,1.524000*%
%ADD13R,1.500000X1.250000*%
%ADD14C,1.450000*%
%ADD15O,1.900000X1.200000*%
%ADD16O,2.000000X4.000000*%
%ADD17R,1.300000X1.500000*%
%ADD18R,1.500000X1.300000*%
%ADD19O,2.200000X4.000000*%
%ADD20R,1.550000X0.600000*%
%ADD21C,0.600000*%
%ADD22C,0.250000*%
%ADD23C,0.254000*%
G04 APERTURE END LIST*
D10*
D11*
X182118000Y-127024000D03*
D12*
X182118000Y-122174000D03*
X182118000Y-120174000D03*
X182118000Y-124174000D03*
D11*
X182118000Y-117324000D03*
D13*
X175534000Y-122428000D03*
X178034000Y-122428000D03*
X165628000Y-110540800D03*
X168128000Y-110540800D03*
D14*
X179768000Y-112990000D03*
X179768000Y-107990000D03*
D15*
X182468000Y-113990000D03*
X182468000Y-106990000D03*
D16*
X153289000Y-126238000D03*
X149479000Y-126238000D03*
X145669000Y-126238000D03*
X151384000Y-121158000D03*
X147574000Y-121158000D03*
X143764000Y-121158000D03*
X141859000Y-126238000D03*
X139954000Y-121158000D03*
X138049000Y-126238000D03*
X136144000Y-121158000D03*
X134239000Y-126238000D03*
X132334000Y-121158000D03*
X170434000Y-121158000D03*
X168529000Y-126238000D03*
X166624000Y-121158000D03*
X164719000Y-126238000D03*
X162814000Y-121158000D03*
X160909000Y-126238000D03*
X159004000Y-121158000D03*
X157099000Y-126238000D03*
X155194000Y-121158000D03*
D10*
G36*
X174795039Y-114957330D02*
X176933330Y-112819039D01*
X176950301Y-114957330D01*
X176933330Y-114974301D01*
X174795039Y-114957330D01*
X174795039Y-114957330D01*
G37*
G36*
X176740961Y-112626670D02*
X174602670Y-114764961D01*
X174585699Y-112626670D01*
X174602670Y-112609699D01*
X176740961Y-112626670D01*
X176740961Y-112626670D01*
G37*
D17*
X172974000Y-124634000D03*
X172974000Y-127334000D03*
D18*
X165528000Y-106781600D03*
X168228000Y-106781600D03*
D19*
X133634000Y-108628000D03*
X147634000Y-108628000D03*
X161634000Y-108628000D03*
D16*
X133634000Y-115878000D03*
X141134000Y-115878000D03*
X169134000Y-115878000D03*
X161634000Y-115878000D03*
X155134000Y-115878000D03*
X147634000Y-115878000D03*
D20*
X173830000Y-120523000D03*
X173830000Y-119253000D03*
X173830000Y-117983000D03*
X173830000Y-116713000D03*
X179230000Y-116713000D03*
X179230000Y-117983000D03*
X179230000Y-119253000D03*
X179230000Y-120523000D03*
D21*
X175831500Y-116586000D03*
X178054000Y-122428000D03*
X155143200Y-126339600D03*
X158984000Y-126538000D03*
X177184000Y-117938000D03*
X170084000Y-108138000D03*
X173672500Y-122364500D03*
X177990500Y-120523000D03*
X175196500Y-113220500D03*
X172974000Y-124634000D03*
X172148500Y-120523000D03*
X179895500Y-123317000D03*
X176657000Y-119380000D03*
X171767500Y-117475000D03*
D22*
X175534000Y-122428000D02*
X175534000Y-120162000D01*
X174625000Y-119253000D02*
X173830000Y-119253000D01*
X175534000Y-120162000D02*
X174625000Y-119253000D01*
X178054000Y-122428000D02*
X178034000Y-122428000D01*
X147574000Y-121158000D02*
X150012400Y-123596400D01*
X155143200Y-124612400D02*
X155143200Y-126339600D01*
X154076400Y-123545600D02*
X155143200Y-124612400D01*
X153060400Y-123545600D02*
X154076400Y-123545600D01*
X153009600Y-123596400D02*
X153060400Y-123545600D01*
X152400000Y-123596400D02*
X153009600Y-123596400D01*
X151892000Y-124104400D02*
X152400000Y-123596400D01*
X150876000Y-124104400D02*
X151892000Y-124104400D01*
X150469600Y-123698000D02*
X150876000Y-124104400D01*
X150469600Y-123596400D02*
X150469600Y-123698000D01*
X150012400Y-123596400D02*
X150469600Y-123596400D01*
X182118000Y-117324000D02*
X183489600Y-118695600D01*
X183489600Y-125652400D02*
X182118000Y-127024000D01*
X183489600Y-118695600D02*
X183489600Y-125652400D01*
X182468000Y-113990000D02*
X182468000Y-116974000D01*
X182468000Y-116974000D02*
X182118000Y-117324000D01*
X155194000Y-121158000D02*
X155194000Y-123348000D01*
X158984000Y-125076398D02*
X158984000Y-126538000D01*
X157645602Y-123738000D02*
X158984000Y-125076398D01*
X155584000Y-123738000D02*
X157645602Y-123738000D01*
X155194000Y-123348000D02*
X155584000Y-123738000D01*
X168128000Y-110540800D02*
X168128000Y-108244000D01*
X168128000Y-108244000D02*
X168334000Y-108038000D01*
X168228000Y-106781600D02*
X168228000Y-107932000D01*
X170084000Y-108138000D02*
X168434000Y-108138000D01*
X177184000Y-117938000D02*
X179185000Y-117938000D01*
X168334000Y-108038000D02*
X168434000Y-108138000D01*
X168228000Y-107932000D02*
X168334000Y-108038000D01*
X179230000Y-117983000D02*
X179185000Y-117938000D01*
X179230000Y-118016000D02*
X179230000Y-117983000D01*
X157099000Y-126238000D02*
X157099000Y-126746000D01*
X157099000Y-126746000D02*
X159385000Y-129032000D01*
X159385000Y-129032000D02*
X169418000Y-129032000D01*
X169418000Y-129032000D02*
X171386500Y-127063500D01*
X171386500Y-127063500D02*
X171386500Y-123571000D01*
X171386500Y-123571000D02*
X172593000Y-122364500D01*
X172593000Y-122364500D02*
X173672500Y-122364500D01*
X177990500Y-120523000D02*
X179230000Y-120523000D01*
X168529000Y-126238000D02*
X168529000Y-125603000D01*
X168529000Y-125603000D02*
X166624000Y-123698000D01*
X166624000Y-123698000D02*
X165862000Y-123698000D01*
X165862000Y-123698000D02*
X164592000Y-122428000D01*
X164592000Y-122428000D02*
X164592000Y-114808000D01*
X164592000Y-114808000D02*
X162814000Y-113030000D01*
X162814000Y-113030000D02*
X143982000Y-113030000D01*
X143982000Y-113030000D02*
X141134000Y-115878000D01*
X160909000Y-126238000D02*
X160782000Y-126238000D01*
X160782000Y-126238000D02*
X157226000Y-122682000D01*
X157226000Y-122682000D02*
X157226000Y-117970000D01*
X157226000Y-117970000D02*
X155134000Y-115878000D01*
X176403000Y-114427000D02*
X177927000Y-114427000D01*
X180594000Y-122650000D02*
X182118000Y-124174000D01*
X180594000Y-116078000D02*
X180594000Y-122650000D01*
X179832000Y-115316000D02*
X180594000Y-116078000D01*
X178816000Y-115316000D02*
X179832000Y-115316000D01*
X177927000Y-114427000D02*
X178816000Y-115316000D01*
X172974000Y-127334000D02*
X173402000Y-127334000D01*
X173402000Y-127334000D02*
X176562000Y-124174000D01*
X176562000Y-124174000D02*
X182118000Y-124174000D01*
X175196500Y-113220500D02*
X175133000Y-113157000D01*
X172894000Y-124634000D02*
X172974000Y-124634000D01*
X172148500Y-120523000D02*
X173830000Y-120523000D01*
X169134000Y-115878000D02*
X170170500Y-115878000D01*
X179578000Y-123634500D02*
X179895500Y-123317000D01*
X177139002Y-123634500D02*
X179578000Y-123634500D01*
X176784000Y-123279498D02*
X177139002Y-123634500D01*
X176784000Y-119507000D02*
X176784000Y-123279498D01*
X176657000Y-119380000D02*
X176784000Y-119507000D01*
X170170500Y-115878000D02*
X171767500Y-117475000D01*
D23*
G36*
X183274000Y-105841452D02*
X183183496Y-105803507D01*
X182945000Y-105755000D01*
X182595000Y-105755000D01*
X182595000Y-106055000D01*
X182341000Y-106055000D01*
X182341000Y-105755000D01*
X181991000Y-105755000D01*
X181752504Y-105803507D01*
X181528054Y-105897610D01*
X181326275Y-106033693D01*
X181154922Y-106206526D01*
X181020579Y-106409467D01*
X180928409Y-106634718D01*
X180924538Y-106672391D01*
X181049269Y-106863000D01*
X181195685Y-106863000D01*
X181183023Y-106983473D01*
X181195174Y-107117000D01*
X181049269Y-107117000D01*
X180935497Y-107290862D01*
X180707133Y-107230472D01*
X179947605Y-107990000D01*
X180707133Y-108749528D01*
X180943450Y-108687035D01*
X181056850Y-108444322D01*
X181120719Y-108184151D01*
X181132604Y-107916518D01*
X181097385Y-107686558D01*
X181154922Y-107773474D01*
X181326275Y-107946307D01*
X181528054Y-108082390D01*
X181752504Y-108176493D01*
X181991000Y-108225000D01*
X182341000Y-108225000D01*
X182341000Y-107925000D01*
X182595000Y-107925000D01*
X182595000Y-108225000D01*
X182945000Y-108225000D01*
X183183496Y-108176493D01*
X183274000Y-108138548D01*
X183274000Y-112841452D01*
X183183496Y-112803507D01*
X182945000Y-112755000D01*
X182595000Y-112755000D01*
X182595000Y-113055000D01*
X182341000Y-113055000D01*
X182341000Y-112755000D01*
X181991000Y-112755000D01*
X181752504Y-112803507D01*
X181528054Y-112897610D01*
X181326275Y-113033693D01*
X181154922Y-113206526D01*
X181091829Y-113301836D01*
X181120719Y-113184151D01*
X181132604Y-112916518D01*
X181092048Y-112651709D01*
X181000609Y-112399900D01*
X180943450Y-112292965D01*
X180707133Y-112230472D01*
X179947605Y-112990000D01*
X180707133Y-113749528D01*
X180935497Y-113689138D01*
X181049269Y-113863000D01*
X181195685Y-113863000D01*
X181183023Y-113983473D01*
X181195174Y-114117000D01*
X181049269Y-114117000D01*
X180924538Y-114307609D01*
X180928409Y-114345282D01*
X181020579Y-114570533D01*
X181154922Y-114773474D01*
X181326275Y-114946307D01*
X181528054Y-115082390D01*
X181752504Y-115176493D01*
X181991000Y-115225000D01*
X182341000Y-115225000D01*
X182341000Y-114925000D01*
X182595000Y-114925000D01*
X182595000Y-115225000D01*
X182945000Y-115225000D01*
X183183496Y-115176493D01*
X183274000Y-115138548D01*
X183274000Y-116015336D01*
X183260528Y-116001864D01*
X183145106Y-116117286D01*
X183037274Y-115842662D01*
X182730616Y-115691784D01*
X182400415Y-115603631D01*
X182059361Y-115581591D01*
X181720561Y-115626511D01*
X181397034Y-115736664D01*
X181297157Y-115790049D01*
X181296655Y-115788387D01*
X181263710Y-115726426D01*
X181231390Y-115664075D01*
X181228897Y-115660952D01*
X181227020Y-115657422D01*
X181182645Y-115603013D01*
X181138852Y-115548154D01*
X181133369Y-115542594D01*
X181133274Y-115542478D01*
X181133166Y-115542389D01*
X181131401Y-115540599D01*
X180369401Y-114778599D01*
X180315145Y-114734032D01*
X180261375Y-114688914D01*
X180257874Y-114686989D01*
X180254785Y-114684452D01*
X180192933Y-114651287D01*
X180131396Y-114617457D01*
X180127584Y-114616248D01*
X180124065Y-114614361D01*
X180056969Y-114593848D01*
X179990013Y-114572608D01*
X179986041Y-114572162D01*
X179982219Y-114570994D01*
X179912351Y-114563897D01*
X179842611Y-114556074D01*
X179834806Y-114556020D01*
X179834653Y-114556004D01*
X179834510Y-114556018D01*
X179832000Y-114556000D01*
X179130802Y-114556000D01*
X178503935Y-113929133D01*
X179008472Y-113929133D01*
X179070965Y-114165450D01*
X179313678Y-114278850D01*
X179573849Y-114342719D01*
X179841482Y-114354604D01*
X180106291Y-114314048D01*
X180358100Y-114222609D01*
X180465035Y-114165450D01*
X180527528Y-113929133D01*
X179768000Y-113169605D01*
X179008472Y-113929133D01*
X178503935Y-113929133D01*
X178464401Y-113889599D01*
X178410145Y-113845032D01*
X178356375Y-113799914D01*
X178352874Y-113797989D01*
X178349785Y-113795452D01*
X178287933Y-113762287D01*
X178226396Y-113728457D01*
X178222584Y-113727248D01*
X178219065Y-113725361D01*
X178151969Y-113704848D01*
X178085013Y-113683608D01*
X178081041Y-113683162D01*
X178077219Y-113681994D01*
X178007351Y-113674897D01*
X177937611Y-113667074D01*
X177929806Y-113667020D01*
X177929653Y-113667004D01*
X177929510Y-113667018D01*
X177927000Y-113667000D01*
X177578152Y-113667000D01*
X177573363Y-113063482D01*
X178403396Y-113063482D01*
X178443952Y-113328291D01*
X178535391Y-113580100D01*
X178592550Y-113687035D01*
X178828867Y-113749528D01*
X179588395Y-112990000D01*
X178828867Y-112230472D01*
X178592550Y-112292965D01*
X178479150Y-112535678D01*
X178415281Y-112795849D01*
X178403396Y-113063482D01*
X177573363Y-113063482D01*
X177571382Y-112813975D01*
X177525911Y-112582430D01*
X177436532Y-112426708D01*
X177307309Y-112302052D01*
X177270953Y-112282889D01*
X177222400Y-112207919D01*
X177086678Y-112090372D01*
X177000864Y-112050867D01*
X179008472Y-112050867D01*
X179768000Y-112810395D01*
X180527528Y-112050867D01*
X180465035Y-111814550D01*
X180222322Y-111701150D01*
X179962151Y-111637281D01*
X179694518Y-111625396D01*
X179429709Y-111665952D01*
X179177900Y-111757391D01*
X179070965Y-111814550D01*
X179008472Y-112050867D01*
X177000864Y-112050867D01*
X176923582Y-112015290D01*
X176746025Y-111988618D01*
X174607734Y-111971647D01*
X174462963Y-111987109D01*
X174295045Y-112050680D01*
X174151485Y-112158514D01*
X174134514Y-112175485D01*
X174043981Y-112289509D01*
X173971497Y-112453777D01*
X173947647Y-112631734D01*
X173964618Y-114770025D01*
X174010089Y-115001570D01*
X174099468Y-115157292D01*
X174228691Y-115281948D01*
X174265047Y-115301111D01*
X174313600Y-115376081D01*
X174449322Y-115493628D01*
X174612418Y-115568710D01*
X174789975Y-115595382D01*
X176928266Y-115612353D01*
X177073037Y-115596891D01*
X177240955Y-115533320D01*
X177384515Y-115425486D01*
X177401486Y-115408515D01*
X177492019Y-115294491D01*
X177539450Y-115187000D01*
X177612198Y-115187000D01*
X178242639Y-115817441D01*
X178182366Y-115836106D01*
X178032441Y-115934900D01*
X177915975Y-116071550D01*
X177842190Y-116235237D01*
X177816928Y-116413000D01*
X177816928Y-117013000D01*
X177824992Y-117114121D01*
X177844774Y-117178000D01*
X177729378Y-117178000D01*
X177630860Y-117111549D01*
X177461825Y-117040493D01*
X177282207Y-117003623D01*
X177098849Y-117002343D01*
X176918733Y-117036701D01*
X176748722Y-117105390D01*
X176595291Y-117205793D01*
X176464283Y-117334086D01*
X176360689Y-117485381D01*
X176288454Y-117653916D01*
X176250331Y-117833272D01*
X176247771Y-118016617D01*
X176280872Y-118196968D01*
X176348372Y-118367454D01*
X176416964Y-118473888D01*
X176391733Y-118478701D01*
X176221722Y-118547390D01*
X176068291Y-118647793D01*
X175937283Y-118776086D01*
X175833689Y-118927381D01*
X175761454Y-119095916D01*
X175723331Y-119275272D01*
X175723314Y-119276512D01*
X175206444Y-118759642D01*
X175181894Y-118680366D01*
X175144440Y-118623528D01*
X175217810Y-118460763D01*
X175243072Y-118283000D01*
X175243072Y-117683000D01*
X175235008Y-117581879D01*
X175181894Y-117410366D01*
X175142819Y-117351067D01*
X175167730Y-117313785D01*
X175187759Y-117265430D01*
X175222576Y-117301484D01*
X175373144Y-117406131D01*
X175541171Y-117479540D01*
X175720257Y-117518915D01*
X175903579Y-117522755D01*
X176084157Y-117490914D01*
X176255110Y-117424606D01*
X176409929Y-117326355D01*
X176542715Y-117199904D01*
X176648411Y-117050070D01*
X176722992Y-116882560D01*
X176763616Y-116703754D01*
X176766540Y-116494319D01*
X176730925Y-116314448D01*
X176661050Y-116144920D01*
X176559579Y-115992193D01*
X176430375Y-115862084D01*
X176278360Y-115759549D01*
X176109325Y-115688493D01*
X175929707Y-115651623D01*
X175746349Y-115650343D01*
X175566233Y-115684701D01*
X175396222Y-115753390D01*
X175242791Y-115853793D01*
X175111783Y-115982086D01*
X175095660Y-116005634D01*
X175009789Y-115919763D01*
X174905785Y-115850270D01*
X174790223Y-115802403D01*
X174667542Y-115778000D01*
X174115750Y-115778000D01*
X173957000Y-115936750D01*
X173957000Y-116586000D01*
X173977000Y-116586000D01*
X173977000Y-116840000D01*
X173957000Y-116840000D01*
X173957000Y-116860000D01*
X173703000Y-116860000D01*
X173703000Y-116840000D01*
X172578750Y-116840000D01*
X172512336Y-116906414D01*
X172495579Y-116881193D01*
X172366375Y-116751084D01*
X172214360Y-116648549D01*
X172045325Y-116577493D01*
X171918829Y-116551527D01*
X171717760Y-116350458D01*
X172420000Y-116350458D01*
X172420000Y-116427250D01*
X172578750Y-116586000D01*
X173703000Y-116586000D01*
X173703000Y-115936750D01*
X173544250Y-115778000D01*
X172992458Y-115778000D01*
X172869777Y-115802403D01*
X172754215Y-115850270D01*
X172650211Y-115919763D01*
X172561763Y-116008211D01*
X172492270Y-116112215D01*
X172444403Y-116227777D01*
X172420000Y-116350458D01*
X171717760Y-116350458D01*
X170769000Y-115401698D01*
X170769000Y-114908926D01*
X170958539Y-115011410D01*
X171235399Y-115097112D01*
X171523633Y-115127407D01*
X171812261Y-115101140D01*
X172090291Y-115019311D01*
X172347131Y-114885038D01*
X172573000Y-114703435D01*
X172759294Y-114481419D01*
X172898916Y-114227447D01*
X172986549Y-113951192D01*
X173018855Y-113663177D01*
X173019000Y-113642443D01*
X173019000Y-110613557D01*
X172990718Y-110325119D01*
X172906951Y-110047667D01*
X172770888Y-109791771D01*
X172587713Y-109567175D01*
X172364401Y-109382436D01*
X172109461Y-109244590D01*
X171832601Y-109158888D01*
X171544367Y-109128593D01*
X171255739Y-109154860D01*
X170977709Y-109236689D01*
X170720869Y-109370962D01*
X170495000Y-109552565D01*
X170308706Y-109774581D01*
X170169084Y-110028553D01*
X170081451Y-110304808D01*
X170049145Y-110592823D01*
X170049000Y-110613557D01*
X170049000Y-113510370D01*
X170048280Y-113509774D01*
X169767588Y-113358004D01*
X169462762Y-113263644D01*
X169145414Y-113230290D01*
X168827632Y-113259210D01*
X168521518Y-113349304D01*
X168238734Y-113497140D01*
X167990050Y-113697087D01*
X167784939Y-113941529D01*
X167631214Y-114221155D01*
X167534729Y-114525314D01*
X167499159Y-114842422D01*
X167499000Y-114865250D01*
X167499000Y-116890750D01*
X167530138Y-117208323D01*
X167622367Y-117513800D01*
X167772174Y-117795545D01*
X167973852Y-118042827D01*
X168219720Y-118246226D01*
X168500412Y-118397996D01*
X168805238Y-118492356D01*
X169122586Y-118525710D01*
X169440368Y-118496790D01*
X169746482Y-118406696D01*
X170029266Y-118258860D01*
X170277950Y-118058913D01*
X170483061Y-117814471D01*
X170636786Y-117534845D01*
X170664663Y-117446965D01*
X170844749Y-117627051D01*
X170864372Y-117733968D01*
X170931872Y-117904454D01*
X171031201Y-118058583D01*
X171158576Y-118190484D01*
X171309144Y-118295131D01*
X171477171Y-118368540D01*
X171656257Y-118407915D01*
X171839579Y-118411755D01*
X172020157Y-118379914D01*
X172191110Y-118313606D01*
X172345929Y-118215355D01*
X172416928Y-118147743D01*
X172416928Y-118283000D01*
X172424992Y-118384121D01*
X172478106Y-118555634D01*
X172515560Y-118612472D01*
X172442190Y-118775237D01*
X172416928Y-118953000D01*
X172416928Y-119553000D01*
X172422649Y-119624738D01*
X172246707Y-119588623D01*
X172063349Y-119587343D01*
X171970640Y-119605028D01*
X171945633Y-119522200D01*
X171795826Y-119240455D01*
X171594148Y-118993173D01*
X171348280Y-118789774D01*
X171067588Y-118638004D01*
X170762762Y-118543644D01*
X170445414Y-118510290D01*
X170127632Y-118539210D01*
X169821518Y-118629304D01*
X169538734Y-118777140D01*
X169290050Y-118977087D01*
X169084939Y-119221529D01*
X168931214Y-119501155D01*
X168834729Y-119805314D01*
X168799159Y-120122422D01*
X168799000Y-120145250D01*
X168799000Y-122170750D01*
X168830138Y-122488323D01*
X168922367Y-122793800D01*
X169072174Y-123075545D01*
X169273852Y-123322827D01*
X169519720Y-123526226D01*
X169800412Y-123677996D01*
X170105238Y-123772356D01*
X170422586Y-123805710D01*
X170626500Y-123787153D01*
X170626500Y-126748698D01*
X170164000Y-127211198D01*
X170164000Y-125225250D01*
X170132862Y-124907677D01*
X170040633Y-124602200D01*
X169890826Y-124320455D01*
X169689148Y-124073173D01*
X169443280Y-123869774D01*
X169162588Y-123718004D01*
X168857762Y-123623644D01*
X168540414Y-123590290D01*
X168222632Y-123619210D01*
X167916518Y-123709304D01*
X167780969Y-123780167D01*
X167530572Y-123529770D01*
X167767950Y-123338913D01*
X167973061Y-123094471D01*
X168126786Y-122814845D01*
X168223271Y-122510686D01*
X168258841Y-122193578D01*
X168259000Y-122170750D01*
X168259000Y-120145250D01*
X168227862Y-119827677D01*
X168135633Y-119522200D01*
X167985826Y-119240455D01*
X167784148Y-118993173D01*
X167538280Y-118789774D01*
X167257588Y-118638004D01*
X166952762Y-118543644D01*
X166635414Y-118510290D01*
X166317632Y-118539210D01*
X166011518Y-118629304D01*
X165728734Y-118777140D01*
X165480050Y-118977087D01*
X165352000Y-119129691D01*
X165352000Y-114808000D01*
X165345148Y-114738119D01*
X165339031Y-114668197D01*
X165337916Y-114664359D01*
X165337526Y-114660382D01*
X165317246Y-114593212D01*
X165297650Y-114525761D01*
X165295809Y-114522210D01*
X165294655Y-114518387D01*
X165261710Y-114456426D01*
X165229390Y-114394075D01*
X165226897Y-114390952D01*
X165225020Y-114387422D01*
X165180645Y-114333013D01*
X165136852Y-114278154D01*
X165131369Y-114272594D01*
X165131274Y-114272478D01*
X165131166Y-114272389D01*
X165129401Y-114270599D01*
X163351401Y-112492599D01*
X163297145Y-112448032D01*
X163243375Y-112402914D01*
X163239874Y-112400989D01*
X163236785Y-112398452D01*
X163174933Y-112365287D01*
X163113396Y-112331457D01*
X163109584Y-112330248D01*
X163106065Y-112328361D01*
X163038969Y-112307848D01*
X162972013Y-112286608D01*
X162968041Y-112286162D01*
X162964219Y-112284994D01*
X162894351Y-112277897D01*
X162824611Y-112270074D01*
X162816806Y-112270020D01*
X162816653Y-112270004D01*
X162816510Y-112270018D01*
X162814000Y-112270000D01*
X143982000Y-112270000D01*
X143912123Y-112276851D01*
X143842197Y-112282969D01*
X143838359Y-112284084D01*
X143834382Y-112284474D01*
X143767179Y-112304764D01*
X143699760Y-112324351D01*
X143696212Y-112326190D01*
X143692387Y-112327345D01*
X143630390Y-112360309D01*
X143568074Y-112392611D01*
X143564953Y-112395103D01*
X143561422Y-112396980D01*
X143507007Y-112441359D01*
X143452154Y-112485148D01*
X143446594Y-112490631D01*
X143446478Y-112490726D01*
X143446389Y-112490834D01*
X143444599Y-112492599D01*
X142255772Y-113681426D01*
X142048280Y-113509774D01*
X141767588Y-113358004D01*
X141462762Y-113263644D01*
X141145414Y-113230290D01*
X140827632Y-113259210D01*
X140521518Y-113349304D01*
X140238734Y-113497140D01*
X139990050Y-113697087D01*
X139784939Y-113941529D01*
X139631214Y-114221155D01*
X139534729Y-114525314D01*
X139499159Y-114842422D01*
X139499000Y-114865250D01*
X139499000Y-116890750D01*
X139530138Y-117208323D01*
X139622367Y-117513800D01*
X139772174Y-117795545D01*
X139973852Y-118042827D01*
X140219720Y-118246226D01*
X140500412Y-118397996D01*
X140805238Y-118492356D01*
X141122586Y-118525710D01*
X141440368Y-118496790D01*
X141746482Y-118406696D01*
X142029266Y-118258860D01*
X142277950Y-118058913D01*
X142483061Y-117814471D01*
X142636786Y-117534845D01*
X142733271Y-117230686D01*
X142768841Y-116913578D01*
X142769000Y-116890750D01*
X142769000Y-115317802D01*
X144296802Y-113790000D01*
X146412087Y-113790000D01*
X146284939Y-113941529D01*
X146131214Y-114221155D01*
X146034729Y-114525314D01*
X145999159Y-114842422D01*
X145999000Y-114865250D01*
X145999000Y-116890750D01*
X146030138Y-117208323D01*
X146122367Y-117513800D01*
X146272174Y-117795545D01*
X146473852Y-118042827D01*
X146719720Y-118246226D01*
X147000412Y-118397996D01*
X147305238Y-118492356D01*
X147622586Y-118525710D01*
X147940368Y-118496790D01*
X148246482Y-118406696D01*
X148529266Y-118258860D01*
X148777950Y-118058913D01*
X148983061Y-117814471D01*
X149136786Y-117534845D01*
X149233271Y-117230686D01*
X149268841Y-116913578D01*
X149269000Y-116890750D01*
X149269000Y-114865250D01*
X149237862Y-114547677D01*
X149145633Y-114242200D01*
X148995826Y-113960455D01*
X148856806Y-113790000D01*
X153912087Y-113790000D01*
X153784939Y-113941529D01*
X153631214Y-114221155D01*
X153534729Y-114525314D01*
X153499159Y-114842422D01*
X153499000Y-114865250D01*
X153499000Y-116890750D01*
X153530138Y-117208323D01*
X153622367Y-117513800D01*
X153772174Y-117795545D01*
X153973852Y-118042827D01*
X154219720Y-118246226D01*
X154500412Y-118397996D01*
X154805238Y-118492356D01*
X155122586Y-118525710D01*
X155440368Y-118496790D01*
X155746482Y-118406696D01*
X156029266Y-118258860D01*
X156256975Y-118075777D01*
X156466000Y-118284802D01*
X156466000Y-119126438D01*
X156260317Y-118912078D01*
X155996761Y-118727990D01*
X155702355Y-118598856D01*
X155574434Y-118567876D01*
X155321000Y-118687223D01*
X155321000Y-121031000D01*
X155341000Y-121031000D01*
X155341000Y-121285000D01*
X155321000Y-121285000D01*
X155321000Y-123628777D01*
X155574434Y-123748124D01*
X155702355Y-123717144D01*
X155996761Y-123588010D01*
X156260317Y-123403922D01*
X156482895Y-123171954D01*
X156563005Y-123046528D01*
X156588610Y-123095925D01*
X156591103Y-123099048D01*
X156592980Y-123102578D01*
X156637355Y-123156987D01*
X156681148Y-123211846D01*
X156686631Y-123217406D01*
X156686726Y-123217522D01*
X156686834Y-123217611D01*
X156688599Y-123219401D01*
X157063736Y-123594538D01*
X156792632Y-123619210D01*
X156486518Y-123709304D01*
X156203734Y-123857140D01*
X155955050Y-124057087D01*
X155749939Y-124301529D01*
X155596214Y-124581155D01*
X155499729Y-124885314D01*
X155464159Y-125202422D01*
X155464000Y-125225250D01*
X155464000Y-127250750D01*
X155495138Y-127568323D01*
X155587367Y-127873800D01*
X155737174Y-128155545D01*
X155938852Y-128402827D01*
X156184720Y-128606226D01*
X156465412Y-128757996D01*
X156770238Y-128852356D01*
X157087586Y-128885710D01*
X157405368Y-128856790D01*
X157711482Y-128766696D01*
X157930430Y-128652232D01*
X158847599Y-129569401D01*
X158901855Y-129613968D01*
X158955625Y-129659086D01*
X158959126Y-129661011D01*
X158962215Y-129663548D01*
X159024067Y-129696713D01*
X159085604Y-129730543D01*
X159089416Y-129731752D01*
X159092935Y-129733639D01*
X159160031Y-129754152D01*
X159226987Y-129775392D01*
X159230959Y-129775838D01*
X159234781Y-129777006D01*
X159304605Y-129784098D01*
X159374389Y-129791926D01*
X159382204Y-129791981D01*
X159382347Y-129791995D01*
X159382480Y-129791982D01*
X159385000Y-129792000D01*
X169418000Y-129792000D01*
X169487877Y-129785149D01*
X169557803Y-129779031D01*
X169561641Y-129777916D01*
X169565618Y-129777526D01*
X169632821Y-129757236D01*
X169700240Y-129737649D01*
X169703788Y-129735810D01*
X169707613Y-129734655D01*
X169769591Y-129701701D01*
X169831925Y-129669390D01*
X169835048Y-129666897D01*
X169838578Y-129665020D01*
X169892987Y-129620645D01*
X169947846Y-129576852D01*
X169953406Y-129571369D01*
X169953522Y-129571274D01*
X169953611Y-129571166D01*
X169955401Y-129569401D01*
X171685928Y-127838874D01*
X171685928Y-128084000D01*
X171693992Y-128185121D01*
X171747106Y-128356634D01*
X171845900Y-128506559D01*
X171982550Y-128623025D01*
X172146237Y-128696810D01*
X172324000Y-128722072D01*
X173624000Y-128722072D01*
X173725121Y-128714008D01*
X173896634Y-128660894D01*
X174046559Y-128562100D01*
X174163025Y-128425450D01*
X174236810Y-128261763D01*
X174262072Y-128084000D01*
X174262072Y-127548730D01*
X175649014Y-126161788D01*
X175649000Y-126163759D01*
X175649000Y-126166568D01*
X175646194Y-126367517D01*
X175649000Y-126382806D01*
X175649000Y-131228000D01*
X127119000Y-131228000D01*
X127119000Y-126163759D01*
X127116817Y-126141496D01*
X127119091Y-125978652D01*
X127082956Y-125796158D01*
X127078339Y-125749069D01*
X127064664Y-125703774D01*
X127037766Y-125567931D01*
X126984997Y-125439903D01*
X126957906Y-125350174D01*
X126913902Y-125267414D01*
X126896524Y-125225250D01*
X132604000Y-125225250D01*
X132604000Y-127250750D01*
X132635138Y-127568323D01*
X132727367Y-127873800D01*
X132877174Y-128155545D01*
X133078852Y-128402827D01*
X133324720Y-128606226D01*
X133605412Y-128757996D01*
X133910238Y-128852356D01*
X134227586Y-128885710D01*
X134545368Y-128856790D01*
X134851482Y-128766696D01*
X135134266Y-128618860D01*
X135382950Y-128418913D01*
X135588061Y-128174471D01*
X135741786Y-127894845D01*
X135838271Y-127590686D01*
X135873841Y-127273578D01*
X135874000Y-127250750D01*
X135874000Y-126365000D01*
X136414000Y-126365000D01*
X136414000Y-127365000D01*
X136470193Y-127681532D01*
X136587058Y-127981020D01*
X136760105Y-128251954D01*
X136982683Y-128483922D01*
X137246239Y-128668010D01*
X137540645Y-128797144D01*
X137668566Y-128828124D01*
X137922000Y-128708777D01*
X137922000Y-126365000D01*
X138176000Y-126365000D01*
X138176000Y-128708777D01*
X138429434Y-128828124D01*
X138557355Y-128797144D01*
X138851761Y-128668010D01*
X139115317Y-128483922D01*
X139337895Y-128251954D01*
X139510942Y-127981020D01*
X139627807Y-127681532D01*
X139684000Y-127365000D01*
X139684000Y-126365000D01*
X138176000Y-126365000D01*
X137922000Y-126365000D01*
X136414000Y-126365000D01*
X135874000Y-126365000D01*
X135874000Y-125225250D01*
X135862798Y-125111000D01*
X136414000Y-125111000D01*
X136414000Y-126111000D01*
X137922000Y-126111000D01*
X137922000Y-123767223D01*
X138176000Y-123767223D01*
X138176000Y-126111000D01*
X139684000Y-126111000D01*
X139684000Y-125225250D01*
X140224000Y-125225250D01*
X140224000Y-127250750D01*
X140255138Y-127568323D01*
X140347367Y-127873800D01*
X140497174Y-128155545D01*
X140698852Y-128402827D01*
X140944720Y-128606226D01*
X141225412Y-128757996D01*
X141530238Y-128852356D01*
X141847586Y-128885710D01*
X142165368Y-128856790D01*
X142471482Y-128766696D01*
X142754266Y-128618860D01*
X143002950Y-128418913D01*
X143208061Y-128174471D01*
X143361786Y-127894845D01*
X143458271Y-127590686D01*
X143493841Y-127273578D01*
X143494000Y-127250750D01*
X143494000Y-125225250D01*
X144034000Y-125225250D01*
X144034000Y-127250750D01*
X144065138Y-127568323D01*
X144157367Y-127873800D01*
X144307174Y-128155545D01*
X144508852Y-128402827D01*
X144754720Y-128606226D01*
X145035412Y-128757996D01*
X145340238Y-128852356D01*
X145657586Y-128885710D01*
X145975368Y-128856790D01*
X146281482Y-128766696D01*
X146564266Y-128618860D01*
X146812950Y-128418913D01*
X147018061Y-128174471D01*
X147171786Y-127894845D01*
X147268271Y-127590686D01*
X147303841Y-127273578D01*
X147304000Y-127250750D01*
X147304000Y-125225250D01*
X147844000Y-125225250D01*
X147844000Y-127250750D01*
X147875138Y-127568323D01*
X147967367Y-127873800D01*
X148117174Y-128155545D01*
X148318852Y-128402827D01*
X148564720Y-128606226D01*
X148845412Y-128757996D01*
X149150238Y-128852356D01*
X149467586Y-128885710D01*
X149785368Y-128856790D01*
X150091482Y-128766696D01*
X150374266Y-128618860D01*
X150622950Y-128418913D01*
X150828061Y-128174471D01*
X150981786Y-127894845D01*
X151078271Y-127590686D01*
X151113841Y-127273578D01*
X151114000Y-127250750D01*
X151114000Y-125225250D01*
X151654000Y-125225250D01*
X151654000Y-127250750D01*
X151685138Y-127568323D01*
X151777367Y-127873800D01*
X151927174Y-128155545D01*
X152128852Y-128402827D01*
X152374720Y-128606226D01*
X152655412Y-128757996D01*
X152960238Y-128852356D01*
X153277586Y-128885710D01*
X153595368Y-128856790D01*
X153901482Y-128766696D01*
X154184266Y-128618860D01*
X154432950Y-128418913D01*
X154638061Y-128174471D01*
X154791786Y-127894845D01*
X154888271Y-127590686D01*
X154923841Y-127273578D01*
X154924000Y-127250750D01*
X154924000Y-125225250D01*
X154892862Y-124907677D01*
X154800633Y-124602200D01*
X154650826Y-124320455D01*
X154449148Y-124073173D01*
X154203280Y-123869774D01*
X153922588Y-123718004D01*
X153617762Y-123623644D01*
X153300414Y-123590290D01*
X152982632Y-123619210D01*
X152676518Y-123709304D01*
X152393734Y-123857140D01*
X152145050Y-124057087D01*
X151939939Y-124301529D01*
X151786214Y-124581155D01*
X151689729Y-124885314D01*
X151654159Y-125202422D01*
X151654000Y-125225250D01*
X151114000Y-125225250D01*
X151082862Y-124907677D01*
X150990633Y-124602200D01*
X150840826Y-124320455D01*
X150639148Y-124073173D01*
X150393280Y-123869774D01*
X150112588Y-123718004D01*
X149807762Y-123623644D01*
X149490414Y-123590290D01*
X149172632Y-123619210D01*
X148866518Y-123709304D01*
X148583734Y-123857140D01*
X148335050Y-124057087D01*
X148129939Y-124301529D01*
X147976214Y-124581155D01*
X147879729Y-124885314D01*
X147844159Y-125202422D01*
X147844000Y-125225250D01*
X147304000Y-125225250D01*
X147272862Y-124907677D01*
X147180633Y-124602200D01*
X147030826Y-124320455D01*
X146829148Y-124073173D01*
X146583280Y-123869774D01*
X146302588Y-123718004D01*
X145997762Y-123623644D01*
X145680414Y-123590290D01*
X145362632Y-123619210D01*
X145056518Y-123709304D01*
X144773734Y-123857140D01*
X144525050Y-124057087D01*
X144319939Y-124301529D01*
X144166214Y-124581155D01*
X144069729Y-124885314D01*
X144034159Y-125202422D01*
X144034000Y-125225250D01*
X143494000Y-125225250D01*
X143462862Y-124907677D01*
X143370633Y-124602200D01*
X143220826Y-124320455D01*
X143019148Y-124073173D01*
X142773280Y-123869774D01*
X142492588Y-123718004D01*
X142187762Y-123623644D01*
X141870414Y-123590290D01*
X141552632Y-123619210D01*
X141246518Y-123709304D01*
X140963734Y-123857140D01*
X140715050Y-124057087D01*
X140509939Y-124301529D01*
X140356214Y-124581155D01*
X140259729Y-124885314D01*
X140224159Y-125202422D01*
X140224000Y-125225250D01*
X139684000Y-125225250D01*
X139684000Y-125111000D01*
X139627807Y-124794468D01*
X139510942Y-124494980D01*
X139337895Y-124224046D01*
X139115317Y-123992078D01*
X138851761Y-123807990D01*
X138557355Y-123678856D01*
X138429434Y-123647876D01*
X138176000Y-123767223D01*
X137922000Y-123767223D01*
X137668566Y-123647876D01*
X137540645Y-123678856D01*
X137246239Y-123807990D01*
X136982683Y-123992078D01*
X136760105Y-124224046D01*
X136587058Y-124494980D01*
X136470193Y-124794468D01*
X136414000Y-125111000D01*
X135862798Y-125111000D01*
X135842862Y-124907677D01*
X135750633Y-124602200D01*
X135600826Y-124320455D01*
X135399148Y-124073173D01*
X135153280Y-123869774D01*
X134872588Y-123718004D01*
X134567762Y-123623644D01*
X134250414Y-123590290D01*
X133932632Y-123619210D01*
X133626518Y-123709304D01*
X133343734Y-123857140D01*
X133095050Y-124057087D01*
X132889939Y-124301529D01*
X132736214Y-124581155D01*
X132639729Y-124885314D01*
X132604159Y-125202422D01*
X132604000Y-125225250D01*
X126896524Y-125225250D01*
X126878214Y-125180829D01*
X126826388Y-125102824D01*
X126762287Y-124982268D01*
X126675991Y-124876459D01*
X126646512Y-124832089D01*
X126608976Y-124794290D01*
X126498934Y-124659365D01*
X126364781Y-124548384D01*
X126351485Y-124534995D01*
X126335841Y-124524443D01*
X126177877Y-124393764D01*
X125811346Y-124195581D01*
X125413301Y-124072366D01*
X124998905Y-124028811D01*
X124583941Y-124066576D01*
X124184215Y-124184221D01*
X123814953Y-124377267D01*
X123653686Y-124506929D01*
X123639728Y-124516063D01*
X123627810Y-124527734D01*
X123490219Y-124638360D01*
X123376737Y-124773603D01*
X123340582Y-124809008D01*
X123311993Y-124850761D01*
X123222383Y-124957554D01*
X123155222Y-125079720D01*
X123104033Y-125154479D01*
X123068340Y-125237757D01*
X123021646Y-125322693D01*
X122992339Y-125415079D01*
X122939091Y-125539317D01*
X122910988Y-125671533D01*
X122895655Y-125719868D01*
X122890002Y-125770262D01*
X122852040Y-125948862D01*
X122849491Y-126131430D01*
X122849208Y-126133950D01*
X122849000Y-126163759D01*
X122849000Y-126166568D01*
X122846194Y-126367517D01*
X122849000Y-126382806D01*
X122849000Y-131228000D01*
X119494000Y-131228000D01*
X119494000Y-121285000D01*
X130699000Y-121285000D01*
X130699000Y-122285000D01*
X130755193Y-122601532D01*
X130872058Y-122901020D01*
X131045105Y-123171954D01*
X131267683Y-123403922D01*
X131531239Y-123588010D01*
X131825645Y-123717144D01*
X131953566Y-123748124D01*
X132207000Y-123628777D01*
X132207000Y-121285000D01*
X132461000Y-121285000D01*
X132461000Y-123628777D01*
X132714434Y-123748124D01*
X132842355Y-123717144D01*
X133136761Y-123588010D01*
X133400317Y-123403922D01*
X133622895Y-123171954D01*
X133795942Y-122901020D01*
X133912807Y-122601532D01*
X133969000Y-122285000D01*
X133969000Y-121285000D01*
X132461000Y-121285000D01*
X132207000Y-121285000D01*
X130699000Y-121285000D01*
X119494000Y-121285000D01*
X119494000Y-120031000D01*
X130699000Y-120031000D01*
X130699000Y-121031000D01*
X132207000Y-121031000D01*
X132207000Y-118687223D01*
X132461000Y-118687223D01*
X132461000Y-121031000D01*
X133969000Y-121031000D01*
X133969000Y-120145250D01*
X134509000Y-120145250D01*
X134509000Y-122170750D01*
X134540138Y-122488323D01*
X134632367Y-122793800D01*
X134782174Y-123075545D01*
X134983852Y-123322827D01*
X135229720Y-123526226D01*
X135510412Y-123677996D01*
X135815238Y-123772356D01*
X136132586Y-123805710D01*
X136450368Y-123776790D01*
X136756482Y-123686696D01*
X137039266Y-123538860D01*
X137287950Y-123338913D01*
X137493061Y-123094471D01*
X137646786Y-122814845D01*
X137743271Y-122510686D01*
X137778841Y-122193578D01*
X137779000Y-122170750D01*
X137779000Y-121285000D01*
X138319000Y-121285000D01*
X138319000Y-122285000D01*
X138375193Y-122601532D01*
X138492058Y-122901020D01*
X138665105Y-123171954D01*
X138887683Y-123403922D01*
X139151239Y-123588010D01*
X139445645Y-123717144D01*
X139573566Y-123748124D01*
X139827000Y-123628777D01*
X139827000Y-121285000D01*
X140081000Y-121285000D01*
X140081000Y-123628777D01*
X140334434Y-123748124D01*
X140462355Y-123717144D01*
X140756761Y-123588010D01*
X141020317Y-123403922D01*
X141242895Y-123171954D01*
X141415942Y-122901020D01*
X141532807Y-122601532D01*
X141589000Y-122285000D01*
X141589000Y-121285000D01*
X140081000Y-121285000D01*
X139827000Y-121285000D01*
X138319000Y-121285000D01*
X137779000Y-121285000D01*
X137779000Y-120145250D01*
X137767798Y-120031000D01*
X138319000Y-120031000D01*
X138319000Y-121031000D01*
X139827000Y-121031000D01*
X139827000Y-118687223D01*
X140081000Y-118687223D01*
X140081000Y-121031000D01*
X141589000Y-121031000D01*
X141589000Y-120145250D01*
X142129000Y-120145250D01*
X142129000Y-122170750D01*
X142160138Y-122488323D01*
X142252367Y-122793800D01*
X142402174Y-123075545D01*
X142603852Y-123322827D01*
X142849720Y-123526226D01*
X143130412Y-123677996D01*
X143435238Y-123772356D01*
X143752586Y-123805710D01*
X144070368Y-123776790D01*
X144376482Y-123686696D01*
X144659266Y-123538860D01*
X144907950Y-123338913D01*
X145113061Y-123094471D01*
X145266786Y-122814845D01*
X145363271Y-122510686D01*
X145398841Y-122193578D01*
X145399000Y-122170750D01*
X145399000Y-121285000D01*
X145939000Y-121285000D01*
X145939000Y-122285000D01*
X145995193Y-122601532D01*
X146112058Y-122901020D01*
X146285105Y-123171954D01*
X146507683Y-123403922D01*
X146771239Y-123588010D01*
X147065645Y-123717144D01*
X147193566Y-123748124D01*
X147447000Y-123628777D01*
X147447000Y-121285000D01*
X147701000Y-121285000D01*
X147701000Y-123628777D01*
X147954434Y-123748124D01*
X148082355Y-123717144D01*
X148376761Y-123588010D01*
X148640317Y-123403922D01*
X148862895Y-123171954D01*
X149035942Y-122901020D01*
X149152807Y-122601532D01*
X149209000Y-122285000D01*
X149209000Y-121285000D01*
X147701000Y-121285000D01*
X147447000Y-121285000D01*
X145939000Y-121285000D01*
X145399000Y-121285000D01*
X145399000Y-120145250D01*
X145387798Y-120031000D01*
X145939000Y-120031000D01*
X145939000Y-121031000D01*
X147447000Y-121031000D01*
X147447000Y-118687223D01*
X147701000Y-118687223D01*
X147701000Y-121031000D01*
X149209000Y-121031000D01*
X149209000Y-120145250D01*
X149749000Y-120145250D01*
X149749000Y-122170750D01*
X149780138Y-122488323D01*
X149872367Y-122793800D01*
X150022174Y-123075545D01*
X150223852Y-123322827D01*
X150469720Y-123526226D01*
X150750412Y-123677996D01*
X151055238Y-123772356D01*
X151372586Y-123805710D01*
X151690368Y-123776790D01*
X151996482Y-123686696D01*
X152279266Y-123538860D01*
X152527950Y-123338913D01*
X152733061Y-123094471D01*
X152886786Y-122814845D01*
X152983271Y-122510686D01*
X153018841Y-122193578D01*
X153019000Y-122170750D01*
X153019000Y-121285000D01*
X153559000Y-121285000D01*
X153559000Y-122285000D01*
X153615193Y-122601532D01*
X153732058Y-122901020D01*
X153905105Y-123171954D01*
X154127683Y-123403922D01*
X154391239Y-123588010D01*
X154685645Y-123717144D01*
X154813566Y-123748124D01*
X155067000Y-123628777D01*
X155067000Y-121285000D01*
X153559000Y-121285000D01*
X153019000Y-121285000D01*
X153019000Y-120145250D01*
X153007798Y-120031000D01*
X153559000Y-120031000D01*
X153559000Y-121031000D01*
X155067000Y-121031000D01*
X155067000Y-118687223D01*
X154813566Y-118567876D01*
X154685645Y-118598856D01*
X154391239Y-118727990D01*
X154127683Y-118912078D01*
X153905105Y-119144046D01*
X153732058Y-119414980D01*
X153615193Y-119714468D01*
X153559000Y-120031000D01*
X153007798Y-120031000D01*
X152987862Y-119827677D01*
X152895633Y-119522200D01*
X152745826Y-119240455D01*
X152544148Y-118993173D01*
X152298280Y-118789774D01*
X152017588Y-118638004D01*
X151712762Y-118543644D01*
X151395414Y-118510290D01*
X151077632Y-118539210D01*
X150771518Y-118629304D01*
X150488734Y-118777140D01*
X150240050Y-118977087D01*
X150034939Y-119221529D01*
X149881214Y-119501155D01*
X149784729Y-119805314D01*
X149749159Y-120122422D01*
X149749000Y-120145250D01*
X149209000Y-120145250D01*
X149209000Y-120031000D01*
X149152807Y-119714468D01*
X149035942Y-119414980D01*
X148862895Y-119144046D01*
X148640317Y-118912078D01*
X148376761Y-118727990D01*
X148082355Y-118598856D01*
X147954434Y-118567876D01*
X147701000Y-118687223D01*
X147447000Y-118687223D01*
X147193566Y-118567876D01*
X147065645Y-118598856D01*
X146771239Y-118727990D01*
X146507683Y-118912078D01*
X146285105Y-119144046D01*
X146112058Y-119414980D01*
X145995193Y-119714468D01*
X145939000Y-120031000D01*
X145387798Y-120031000D01*
X145367862Y-119827677D01*
X145275633Y-119522200D01*
X145125826Y-119240455D01*
X144924148Y-118993173D01*
X144678280Y-118789774D01*
X144397588Y-118638004D01*
X144092762Y-118543644D01*
X143775414Y-118510290D01*
X143457632Y-118539210D01*
X143151518Y-118629304D01*
X142868734Y-118777140D01*
X142620050Y-118977087D01*
X142414939Y-119221529D01*
X142261214Y-119501155D01*
X142164729Y-119805314D01*
X142129159Y-120122422D01*
X142129000Y-120145250D01*
X141589000Y-120145250D01*
X141589000Y-120031000D01*
X141532807Y-119714468D01*
X141415942Y-119414980D01*
X141242895Y-119144046D01*
X141020317Y-118912078D01*
X140756761Y-118727990D01*
X140462355Y-118598856D01*
X140334434Y-118567876D01*
X140081000Y-118687223D01*
X139827000Y-118687223D01*
X139573566Y-118567876D01*
X139445645Y-118598856D01*
X139151239Y-118727990D01*
X138887683Y-118912078D01*
X138665105Y-119144046D01*
X138492058Y-119414980D01*
X138375193Y-119714468D01*
X138319000Y-120031000D01*
X137767798Y-120031000D01*
X137747862Y-119827677D01*
X137655633Y-119522200D01*
X137505826Y-119240455D01*
X137304148Y-118993173D01*
X137058280Y-118789774D01*
X136777588Y-118638004D01*
X136472762Y-118543644D01*
X136155414Y-118510290D01*
X135837632Y-118539210D01*
X135531518Y-118629304D01*
X135248734Y-118777140D01*
X135000050Y-118977087D01*
X134794939Y-119221529D01*
X134641214Y-119501155D01*
X134544729Y-119805314D01*
X134509159Y-120122422D01*
X134509000Y-120145250D01*
X133969000Y-120145250D01*
X133969000Y-120031000D01*
X133912807Y-119714468D01*
X133795942Y-119414980D01*
X133622895Y-119144046D01*
X133400317Y-118912078D01*
X133136761Y-118727990D01*
X132842355Y-118598856D01*
X132714434Y-118567876D01*
X132461000Y-118687223D01*
X132207000Y-118687223D01*
X131953566Y-118567876D01*
X131825645Y-118598856D01*
X131531239Y-118727990D01*
X131267683Y-118912078D01*
X131045105Y-119144046D01*
X130872058Y-119414980D01*
X130755193Y-119714468D01*
X130699000Y-120031000D01*
X119494000Y-120031000D01*
X119494000Y-117792592D01*
X122746062Y-117792592D01*
X122825185Y-118223697D01*
X122986536Y-118631224D01*
X123223970Y-118999649D01*
X123528443Y-119314940D01*
X123888358Y-119565088D01*
X124290005Y-119740563D01*
X124718087Y-119834683D01*
X125156297Y-119843862D01*
X125587944Y-119767751D01*
X125996587Y-119609249D01*
X126366661Y-119374393D01*
X126684070Y-119072128D01*
X126936724Y-118713969D01*
X127114999Y-118313556D01*
X127212105Y-117886142D01*
X127219096Y-117385514D01*
X127133962Y-116955555D01*
X126966936Y-116550321D01*
X126724381Y-116185247D01*
X126415536Y-115874238D01*
X126052164Y-115629140D01*
X125648105Y-115459289D01*
X125218751Y-115371156D01*
X124780456Y-115368096D01*
X124349914Y-115450226D01*
X123943523Y-115614419D01*
X123576764Y-115854419D01*
X123263607Y-116161086D01*
X123015978Y-116522738D01*
X122843311Y-116925600D01*
X122752182Y-117354329D01*
X122746062Y-117792592D01*
X119494000Y-117792592D01*
X119494000Y-110709258D01*
X122746062Y-110709258D01*
X122825185Y-111140363D01*
X122986536Y-111547890D01*
X123223970Y-111916315D01*
X123528443Y-112231606D01*
X123888358Y-112481754D01*
X124290005Y-112657229D01*
X124718087Y-112751349D01*
X125156297Y-112760528D01*
X125587944Y-112684417D01*
X125996587Y-112525915D01*
X126366661Y-112291059D01*
X126684070Y-111988794D01*
X126936724Y-111630635D01*
X127114999Y-111230222D01*
X127212105Y-110802808D01*
X127214747Y-110613557D01*
X129749000Y-110613557D01*
X129749000Y-113642443D01*
X129777282Y-113930881D01*
X129861049Y-114208333D01*
X129997112Y-114464229D01*
X130180287Y-114688825D01*
X130403599Y-114873564D01*
X130658539Y-115011410D01*
X130935399Y-115097112D01*
X131223633Y-115127407D01*
X131512261Y-115101140D01*
X131790291Y-115019311D01*
X131999000Y-114910200D01*
X131999000Y-116890750D01*
X132030138Y-117208323D01*
X132122367Y-117513800D01*
X132272174Y-117795545D01*
X132473852Y-118042827D01*
X132719720Y-118246226D01*
X133000412Y-118397996D01*
X133305238Y-118492356D01*
X133622586Y-118525710D01*
X133940368Y-118496790D01*
X134246482Y-118406696D01*
X134529266Y-118258860D01*
X134777950Y-118058913D01*
X134983061Y-117814471D01*
X135136786Y-117534845D01*
X135233271Y-117230686D01*
X135268841Y-116913578D01*
X135269000Y-116890750D01*
X135269000Y-114865250D01*
X135237862Y-114547677D01*
X135145633Y-114242200D01*
X134995826Y-113960455D01*
X134794148Y-113713173D01*
X134548280Y-113509774D01*
X134267588Y-113358004D01*
X133962762Y-113263644D01*
X133645414Y-113230290D01*
X133327632Y-113259210D01*
X133021518Y-113349304D01*
X132738734Y-113497140D01*
X132719000Y-113513007D01*
X132719000Y-111001189D01*
X132775683Y-111041157D01*
X133087378Y-111179531D01*
X133237878Y-111217175D01*
X133507000Y-111099125D01*
X133507000Y-108755000D01*
X133761000Y-108755000D01*
X133761000Y-111099125D01*
X134030122Y-111217175D01*
X134180622Y-111179531D01*
X134492317Y-111041157D01*
X134771027Y-110844633D01*
X135006042Y-110597511D01*
X135188330Y-110309288D01*
X135310886Y-109991041D01*
X135369000Y-109655000D01*
X135369000Y-108755000D01*
X145899000Y-108755000D01*
X145899000Y-109655000D01*
X145957114Y-109991041D01*
X146079670Y-110309288D01*
X146261958Y-110597511D01*
X146496973Y-110844633D01*
X146775683Y-111041157D01*
X147087378Y-111179531D01*
X147237878Y-111217175D01*
X147507000Y-111099125D01*
X147507000Y-108755000D01*
X147761000Y-108755000D01*
X147761000Y-111099125D01*
X148030122Y-111217175D01*
X148180622Y-111179531D01*
X148492317Y-111041157D01*
X148771027Y-110844633D01*
X149006042Y-110597511D01*
X149188330Y-110309288D01*
X149310886Y-109991041D01*
X149369000Y-109655000D01*
X149369000Y-108755000D01*
X159899000Y-108755000D01*
X159899000Y-109655000D01*
X159957114Y-109991041D01*
X160079670Y-110309288D01*
X160261958Y-110597511D01*
X160496973Y-110844633D01*
X160775683Y-111041157D01*
X161087378Y-111179531D01*
X161237878Y-111217175D01*
X161507000Y-111099125D01*
X161507000Y-108755000D01*
X161761000Y-108755000D01*
X161761000Y-111099125D01*
X162030122Y-111217175D01*
X162180622Y-111179531D01*
X162492317Y-111041157D01*
X162771027Y-110844633D01*
X162788224Y-110826550D01*
X164243000Y-110826550D01*
X164243000Y-111228342D01*
X164267403Y-111351023D01*
X164315270Y-111466585D01*
X164384763Y-111570589D01*
X164473211Y-111659037D01*
X164577215Y-111728530D01*
X164692777Y-111776397D01*
X164815458Y-111800800D01*
X165342250Y-111800800D01*
X165501000Y-111642050D01*
X165501000Y-110667800D01*
X164401750Y-110667800D01*
X164243000Y-110826550D01*
X162788224Y-110826550D01*
X163006042Y-110597511D01*
X163188330Y-110309288D01*
X163310886Y-109991041D01*
X163334713Y-109853258D01*
X164243000Y-109853258D01*
X164243000Y-110255050D01*
X164401750Y-110413800D01*
X165501000Y-110413800D01*
X165501000Y-109439550D01*
X165342250Y-109280800D01*
X164815458Y-109280800D01*
X164692777Y-109305203D01*
X164577215Y-109353070D01*
X164473211Y-109422563D01*
X164384763Y-109511011D01*
X164315270Y-109615015D01*
X164267403Y-109730577D01*
X164243000Y-109853258D01*
X163334713Y-109853258D01*
X163369000Y-109655000D01*
X163369000Y-108755000D01*
X161761000Y-108755000D01*
X161507000Y-108755000D01*
X159899000Y-108755000D01*
X149369000Y-108755000D01*
X147761000Y-108755000D01*
X147507000Y-108755000D01*
X145899000Y-108755000D01*
X135369000Y-108755000D01*
X133761000Y-108755000D01*
X133507000Y-108755000D01*
X131899000Y-108755000D01*
X131899000Y-109293004D01*
X131809461Y-109244590D01*
X131532601Y-109158888D01*
X131244367Y-109128593D01*
X130955739Y-109154860D01*
X130677709Y-109236689D01*
X130420869Y-109370962D01*
X130195000Y-109552565D01*
X130008706Y-109774581D01*
X129869084Y-110028553D01*
X129781451Y-110304808D01*
X129749145Y-110592823D01*
X129749000Y-110613557D01*
X127214747Y-110613557D01*
X127219096Y-110302180D01*
X127133962Y-109872221D01*
X126966936Y-109466987D01*
X126724381Y-109101913D01*
X126415536Y-108790904D01*
X126052164Y-108545806D01*
X125648105Y-108375955D01*
X125218751Y-108287822D01*
X124780456Y-108284762D01*
X124349914Y-108366892D01*
X123943523Y-108531085D01*
X123576764Y-108771085D01*
X123263607Y-109077752D01*
X123015978Y-109439404D01*
X122843311Y-109842266D01*
X122752182Y-110270995D01*
X122746062Y-110709258D01*
X119494000Y-110709258D01*
X119494000Y-107601000D01*
X131899000Y-107601000D01*
X131899000Y-108501000D01*
X133507000Y-108501000D01*
X133507000Y-106156875D01*
X133761000Y-106156875D01*
X133761000Y-108501000D01*
X135369000Y-108501000D01*
X135369000Y-107601000D01*
X145899000Y-107601000D01*
X145899000Y-108501000D01*
X147507000Y-108501000D01*
X147507000Y-106156875D01*
X147761000Y-106156875D01*
X147761000Y-108501000D01*
X149369000Y-108501000D01*
X149369000Y-107601000D01*
X159899000Y-107601000D01*
X159899000Y-108501000D01*
X161507000Y-108501000D01*
X161507000Y-106156875D01*
X161761000Y-106156875D01*
X161761000Y-108501000D01*
X163369000Y-108501000D01*
X163369000Y-107601000D01*
X163310886Y-107264959D01*
X163234788Y-107067350D01*
X164143000Y-107067350D01*
X164143000Y-107494142D01*
X164167403Y-107616823D01*
X164215270Y-107732385D01*
X164284763Y-107836389D01*
X164373211Y-107924837D01*
X164477215Y-107994330D01*
X164592777Y-108042197D01*
X164715458Y-108066600D01*
X165242250Y-108066600D01*
X165401000Y-107907850D01*
X165401000Y-106908600D01*
X164301750Y-106908600D01*
X164143000Y-107067350D01*
X163234788Y-107067350D01*
X163188330Y-106946712D01*
X163006042Y-106658489D01*
X162771027Y-106411367D01*
X162492317Y-106214843D01*
X162180622Y-106076469D01*
X162150993Y-106069058D01*
X164143000Y-106069058D01*
X164143000Y-106495850D01*
X164301750Y-106654600D01*
X165401000Y-106654600D01*
X165401000Y-105655350D01*
X165655000Y-105655350D01*
X165655000Y-106654600D01*
X165675000Y-106654600D01*
X165675000Y-106908600D01*
X165655000Y-106908600D01*
X165655000Y-107907850D01*
X165813750Y-108066600D01*
X166340542Y-108066600D01*
X166463223Y-108042197D01*
X166578785Y-107994330D01*
X166682789Y-107924837D01*
X166771237Y-107836389D01*
X166840730Y-107732385D01*
X166880266Y-107636937D01*
X166901106Y-107704234D01*
X166999900Y-107854159D01*
X167136550Y-107970625D01*
X167300237Y-108044410D01*
X167393589Y-108057676D01*
X167384608Y-108085987D01*
X167384162Y-108089959D01*
X167382994Y-108093781D01*
X167375897Y-108163649D01*
X167368074Y-108233389D01*
X167368020Y-108241194D01*
X167368004Y-108241347D01*
X167368018Y-108241490D01*
X167368000Y-108244000D01*
X167368000Y-109278525D01*
X167276879Y-109285792D01*
X167105366Y-109338906D01*
X166955441Y-109437700D01*
X166880783Y-109525297D01*
X166871237Y-109511011D01*
X166782789Y-109422563D01*
X166678785Y-109353070D01*
X166563223Y-109305203D01*
X166440542Y-109280800D01*
X165913750Y-109280800D01*
X165755000Y-109439550D01*
X165755000Y-110413800D01*
X165775000Y-110413800D01*
X165775000Y-110667800D01*
X165755000Y-110667800D01*
X165755000Y-111642050D01*
X165913750Y-111800800D01*
X166440542Y-111800800D01*
X166563223Y-111776397D01*
X166678785Y-111728530D01*
X166782789Y-111659037D01*
X166871237Y-111570589D01*
X166879773Y-111557815D01*
X166899900Y-111588359D01*
X167036550Y-111704825D01*
X167200237Y-111778610D01*
X167378000Y-111803872D01*
X168878000Y-111803872D01*
X168979121Y-111795808D01*
X169150634Y-111742694D01*
X169300559Y-111643900D01*
X169417025Y-111507250D01*
X169490810Y-111343563D01*
X169516072Y-111165800D01*
X169516072Y-109915800D01*
X169508008Y-109814679D01*
X169454894Y-109643166D01*
X169356100Y-109493241D01*
X169219450Y-109376775D01*
X169055763Y-109302990D01*
X168888000Y-109279149D01*
X168888000Y-108898000D01*
X169539126Y-108898000D01*
X169625644Y-108958131D01*
X169793671Y-109031540D01*
X169972757Y-109070915D01*
X170156079Y-109074755D01*
X170336657Y-109042914D01*
X170507610Y-108976606D01*
X170662429Y-108878355D01*
X170795215Y-108751904D01*
X170900911Y-108602070D01*
X170975492Y-108434560D01*
X171016116Y-108255754D01*
X171019040Y-108046319D01*
X170983425Y-107866448D01*
X170913550Y-107696920D01*
X170812079Y-107544193D01*
X170682875Y-107414084D01*
X170530860Y-107311549D01*
X170361825Y-107240493D01*
X170242139Y-107215925D01*
X172916062Y-107215925D01*
X172995185Y-107647030D01*
X173156536Y-108054557D01*
X173393970Y-108422982D01*
X173698443Y-108738273D01*
X174058358Y-108988421D01*
X174460005Y-109163896D01*
X174888087Y-109258016D01*
X175326297Y-109267195D01*
X175757944Y-109191084D01*
X176166587Y-109032582D01*
X176329596Y-108929133D01*
X179008472Y-108929133D01*
X179070965Y-109165450D01*
X179313678Y-109278850D01*
X179573849Y-109342719D01*
X179841482Y-109354604D01*
X180106291Y-109314048D01*
X180358100Y-109222609D01*
X180465035Y-109165450D01*
X180527528Y-108929133D01*
X179768000Y-108169605D01*
X179008472Y-108929133D01*
X176329596Y-108929133D01*
X176536661Y-108797726D01*
X176854070Y-108495461D01*
X177106724Y-108137302D01*
X177139590Y-108063482D01*
X178403396Y-108063482D01*
X178443952Y-108328291D01*
X178535391Y-108580100D01*
X178592550Y-108687035D01*
X178828867Y-108749528D01*
X179588395Y-107990000D01*
X178828867Y-107230472D01*
X178592550Y-107292965D01*
X178479150Y-107535678D01*
X178415281Y-107795849D01*
X178403396Y-108063482D01*
X177139590Y-108063482D01*
X177284999Y-107736889D01*
X177382105Y-107309475D01*
X177385716Y-107050867D01*
X179008472Y-107050867D01*
X179768000Y-107810395D01*
X180527528Y-107050867D01*
X180465035Y-106814550D01*
X180222322Y-106701150D01*
X179962151Y-106637281D01*
X179694518Y-106625396D01*
X179429709Y-106665952D01*
X179177900Y-106757391D01*
X179070965Y-106814550D01*
X179008472Y-107050867D01*
X177385716Y-107050867D01*
X177389096Y-106808847D01*
X177303962Y-106378888D01*
X177136936Y-105973654D01*
X176894381Y-105608580D01*
X176585536Y-105297571D01*
X176222164Y-105052473D01*
X175818105Y-104882622D01*
X175388751Y-104794489D01*
X174950456Y-104791429D01*
X174519914Y-104873559D01*
X174113523Y-105037752D01*
X173746764Y-105277752D01*
X173433607Y-105584419D01*
X173185978Y-105946071D01*
X173013311Y-106348933D01*
X172922182Y-106777662D01*
X172916062Y-107215925D01*
X170242139Y-107215925D01*
X170182207Y-107203623D01*
X169998849Y-107202343D01*
X169818733Y-107236701D01*
X169648722Y-107305390D01*
X169616072Y-107326756D01*
X169616072Y-106131600D01*
X169608008Y-106030479D01*
X169554894Y-105858966D01*
X169456100Y-105709041D01*
X169319450Y-105592575D01*
X169155763Y-105518790D01*
X168978000Y-105493528D01*
X167478000Y-105493528D01*
X167376879Y-105501592D01*
X167205366Y-105554706D01*
X167055441Y-105653500D01*
X166938975Y-105790150D01*
X166878998Y-105923204D01*
X166840730Y-105830815D01*
X166771237Y-105726811D01*
X166682789Y-105638363D01*
X166578785Y-105568870D01*
X166463223Y-105521003D01*
X166340542Y-105496600D01*
X165813750Y-105496600D01*
X165655000Y-105655350D01*
X165401000Y-105655350D01*
X165242250Y-105496600D01*
X164715458Y-105496600D01*
X164592777Y-105521003D01*
X164477215Y-105568870D01*
X164373211Y-105638363D01*
X164284763Y-105726811D01*
X164215270Y-105830815D01*
X164167403Y-105946377D01*
X164143000Y-106069058D01*
X162150993Y-106069058D01*
X162030122Y-106038825D01*
X161761000Y-106156875D01*
X161507000Y-106156875D01*
X161237878Y-106038825D01*
X161087378Y-106076469D01*
X160775683Y-106214843D01*
X160496973Y-106411367D01*
X160261958Y-106658489D01*
X160079670Y-106946712D01*
X159957114Y-107264959D01*
X159899000Y-107601000D01*
X149369000Y-107601000D01*
X149310886Y-107264959D01*
X149188330Y-106946712D01*
X149006042Y-106658489D01*
X148771027Y-106411367D01*
X148492317Y-106214843D01*
X148180622Y-106076469D01*
X148030122Y-106038825D01*
X147761000Y-106156875D01*
X147507000Y-106156875D01*
X147237878Y-106038825D01*
X147087378Y-106076469D01*
X146775683Y-106214843D01*
X146496973Y-106411367D01*
X146261958Y-106658489D01*
X146079670Y-106946712D01*
X145957114Y-107264959D01*
X145899000Y-107601000D01*
X135369000Y-107601000D01*
X135310886Y-107264959D01*
X135188330Y-106946712D01*
X135006042Y-106658489D01*
X134771027Y-106411367D01*
X134492317Y-106214843D01*
X134180622Y-106076469D01*
X134030122Y-106038825D01*
X133761000Y-106156875D01*
X133507000Y-106156875D01*
X133237878Y-106038825D01*
X133087378Y-106076469D01*
X132775683Y-106214843D01*
X132496973Y-106411367D01*
X132261958Y-106658489D01*
X132079670Y-106946712D01*
X131957114Y-107264959D01*
X131899000Y-107601000D01*
X119494000Y-107601000D01*
X119494000Y-104148000D01*
X183274000Y-104148000D01*
X183274000Y-105841452D01*
X183274000Y-105841452D01*
G37*
X183274000Y-105841452D02*
X183183496Y-105803507D01*
X182945000Y-105755000D01*
X182595000Y-105755000D01*
X182595000Y-106055000D01*
X182341000Y-106055000D01*
X182341000Y-105755000D01*
X181991000Y-105755000D01*
X181752504Y-105803507D01*
X181528054Y-105897610D01*
X181326275Y-106033693D01*
X181154922Y-106206526D01*
X181020579Y-106409467D01*
X180928409Y-106634718D01*
X180924538Y-106672391D01*
X181049269Y-106863000D01*
X181195685Y-106863000D01*
X181183023Y-106983473D01*
X181195174Y-107117000D01*
X181049269Y-107117000D01*
X180935497Y-107290862D01*
X180707133Y-107230472D01*
X179947605Y-107990000D01*
X180707133Y-108749528D01*
X180943450Y-108687035D01*
X181056850Y-108444322D01*
X181120719Y-108184151D01*
X181132604Y-107916518D01*
X181097385Y-107686558D01*
X181154922Y-107773474D01*
X181326275Y-107946307D01*
X181528054Y-108082390D01*
X181752504Y-108176493D01*
X181991000Y-108225000D01*
X182341000Y-108225000D01*
X182341000Y-107925000D01*
X182595000Y-107925000D01*
X182595000Y-108225000D01*
X182945000Y-108225000D01*
X183183496Y-108176493D01*
X183274000Y-108138548D01*
X183274000Y-112841452D01*
X183183496Y-112803507D01*
X182945000Y-112755000D01*
X182595000Y-112755000D01*
X182595000Y-113055000D01*
X182341000Y-113055000D01*
X182341000Y-112755000D01*
X181991000Y-112755000D01*
X181752504Y-112803507D01*
X181528054Y-112897610D01*
X181326275Y-113033693D01*
X181154922Y-113206526D01*
X181091829Y-113301836D01*
X181120719Y-113184151D01*
X181132604Y-112916518D01*
X181092048Y-112651709D01*
X181000609Y-112399900D01*
X180943450Y-112292965D01*
X180707133Y-112230472D01*
X179947605Y-112990000D01*
X180707133Y-113749528D01*
X180935497Y-113689138D01*
X181049269Y-113863000D01*
X181195685Y-113863000D01*
X181183023Y-113983473D01*
X181195174Y-114117000D01*
X181049269Y-114117000D01*
X180924538Y-114307609D01*
X180928409Y-114345282D01*
X181020579Y-114570533D01*
X181154922Y-114773474D01*
X181326275Y-114946307D01*
X181528054Y-115082390D01*
X181752504Y-115176493D01*
X181991000Y-115225000D01*
X182341000Y-115225000D01*
X182341000Y-114925000D01*
X182595000Y-114925000D01*
X182595000Y-115225000D01*
X182945000Y-115225000D01*
X183183496Y-115176493D01*
X183274000Y-115138548D01*
X183274000Y-116015336D01*
X183260528Y-116001864D01*
X183145106Y-116117286D01*
X183037274Y-115842662D01*
X182730616Y-115691784D01*
X182400415Y-115603631D01*
X182059361Y-115581591D01*
X181720561Y-115626511D01*
X181397034Y-115736664D01*
X181297157Y-115790049D01*
X181296655Y-115788387D01*
X181263710Y-115726426D01*
X181231390Y-115664075D01*
X181228897Y-115660952D01*
X181227020Y-115657422D01*
X181182645Y-115603013D01*
X181138852Y-115548154D01*
X181133369Y-115542594D01*
X181133274Y-115542478D01*
X181133166Y-115542389D01*
X181131401Y-115540599D01*
X180369401Y-114778599D01*
X180315145Y-114734032D01*
X180261375Y-114688914D01*
X180257874Y-114686989D01*
X180254785Y-114684452D01*
X180192933Y-114651287D01*
X180131396Y-114617457D01*
X180127584Y-114616248D01*
X180124065Y-114614361D01*
X180056969Y-114593848D01*
X179990013Y-114572608D01*
X179986041Y-114572162D01*
X179982219Y-114570994D01*
X179912351Y-114563897D01*
X179842611Y-114556074D01*
X179834806Y-114556020D01*
X179834653Y-114556004D01*
X179834510Y-114556018D01*
X179832000Y-114556000D01*
X179130802Y-114556000D01*
X178503935Y-113929133D01*
X179008472Y-113929133D01*
X179070965Y-114165450D01*
X179313678Y-114278850D01*
X179573849Y-114342719D01*
X179841482Y-114354604D01*
X180106291Y-114314048D01*
X180358100Y-114222609D01*
X180465035Y-114165450D01*
X180527528Y-113929133D01*
X179768000Y-113169605D01*
X179008472Y-113929133D01*
X178503935Y-113929133D01*
X178464401Y-113889599D01*
X178410145Y-113845032D01*
X178356375Y-113799914D01*
X178352874Y-113797989D01*
X178349785Y-113795452D01*
X178287933Y-113762287D01*
X178226396Y-113728457D01*
X178222584Y-113727248D01*
X178219065Y-113725361D01*
X178151969Y-113704848D01*
X178085013Y-113683608D01*
X178081041Y-113683162D01*
X178077219Y-113681994D01*
X178007351Y-113674897D01*
X177937611Y-113667074D01*
X177929806Y-113667020D01*
X177929653Y-113667004D01*
X177929510Y-113667018D01*
X177927000Y-113667000D01*
X177578152Y-113667000D01*
X177573363Y-113063482D01*
X178403396Y-113063482D01*
X178443952Y-113328291D01*
X178535391Y-113580100D01*
X178592550Y-113687035D01*
X178828867Y-113749528D01*
X179588395Y-112990000D01*
X178828867Y-112230472D01*
X178592550Y-112292965D01*
X178479150Y-112535678D01*
X178415281Y-112795849D01*
X178403396Y-113063482D01*
X177573363Y-113063482D01*
X177571382Y-112813975D01*
X177525911Y-112582430D01*
X177436532Y-112426708D01*
X177307309Y-112302052D01*
X177270953Y-112282889D01*
X177222400Y-112207919D01*
X177086678Y-112090372D01*
X177000864Y-112050867D01*
X179008472Y-112050867D01*
X179768000Y-112810395D01*
X180527528Y-112050867D01*
X180465035Y-111814550D01*
X180222322Y-111701150D01*
X179962151Y-111637281D01*
X179694518Y-111625396D01*
X179429709Y-111665952D01*
X179177900Y-111757391D01*
X179070965Y-111814550D01*
X179008472Y-112050867D01*
X177000864Y-112050867D01*
X176923582Y-112015290D01*
X176746025Y-111988618D01*
X174607734Y-111971647D01*
X174462963Y-111987109D01*
X174295045Y-112050680D01*
X174151485Y-112158514D01*
X174134514Y-112175485D01*
X174043981Y-112289509D01*
X173971497Y-112453777D01*
X173947647Y-112631734D01*
X173964618Y-114770025D01*
X174010089Y-115001570D01*
X174099468Y-115157292D01*
X174228691Y-115281948D01*
X174265047Y-115301111D01*
X174313600Y-115376081D01*
X174449322Y-115493628D01*
X174612418Y-115568710D01*
X174789975Y-115595382D01*
X176928266Y-115612353D01*
X177073037Y-115596891D01*
X177240955Y-115533320D01*
X177384515Y-115425486D01*
X177401486Y-115408515D01*
X177492019Y-115294491D01*
X177539450Y-115187000D01*
X177612198Y-115187000D01*
X178242639Y-115817441D01*
X178182366Y-115836106D01*
X178032441Y-115934900D01*
X177915975Y-116071550D01*
X177842190Y-116235237D01*
X177816928Y-116413000D01*
X177816928Y-117013000D01*
X177824992Y-117114121D01*
X177844774Y-117178000D01*
X177729378Y-117178000D01*
X177630860Y-117111549D01*
X177461825Y-117040493D01*
X177282207Y-117003623D01*
X177098849Y-117002343D01*
X176918733Y-117036701D01*
X176748722Y-117105390D01*
X176595291Y-117205793D01*
X176464283Y-117334086D01*
X176360689Y-117485381D01*
X176288454Y-117653916D01*
X176250331Y-117833272D01*
X176247771Y-118016617D01*
X176280872Y-118196968D01*
X176348372Y-118367454D01*
X176416964Y-118473888D01*
X176391733Y-118478701D01*
X176221722Y-118547390D01*
X176068291Y-118647793D01*
X175937283Y-118776086D01*
X175833689Y-118927381D01*
X175761454Y-119095916D01*
X175723331Y-119275272D01*
X175723314Y-119276512D01*
X175206444Y-118759642D01*
X175181894Y-118680366D01*
X175144440Y-118623528D01*
X175217810Y-118460763D01*
X175243072Y-118283000D01*
X175243072Y-117683000D01*
X175235008Y-117581879D01*
X175181894Y-117410366D01*
X175142819Y-117351067D01*
X175167730Y-117313785D01*
X175187759Y-117265430D01*
X175222576Y-117301484D01*
X175373144Y-117406131D01*
X175541171Y-117479540D01*
X175720257Y-117518915D01*
X175903579Y-117522755D01*
X176084157Y-117490914D01*
X176255110Y-117424606D01*
X176409929Y-117326355D01*
X176542715Y-117199904D01*
X176648411Y-117050070D01*
X176722992Y-116882560D01*
X176763616Y-116703754D01*
X176766540Y-116494319D01*
X176730925Y-116314448D01*
X176661050Y-116144920D01*
X176559579Y-115992193D01*
X176430375Y-115862084D01*
X176278360Y-115759549D01*
X176109325Y-115688493D01*
X175929707Y-115651623D01*
X175746349Y-115650343D01*
X175566233Y-115684701D01*
X175396222Y-115753390D01*
X175242791Y-115853793D01*
X175111783Y-115982086D01*
X175095660Y-116005634D01*
X175009789Y-115919763D01*
X174905785Y-115850270D01*
X174790223Y-115802403D01*
X174667542Y-115778000D01*
X174115750Y-115778000D01*
X173957000Y-115936750D01*
X173957000Y-116586000D01*
X173977000Y-116586000D01*
X173977000Y-116840000D01*
X173957000Y-116840000D01*
X173957000Y-116860000D01*
X173703000Y-116860000D01*
X173703000Y-116840000D01*
X172578750Y-116840000D01*
X172512336Y-116906414D01*
X172495579Y-116881193D01*
X172366375Y-116751084D01*
X172214360Y-116648549D01*
X172045325Y-116577493D01*
X171918829Y-116551527D01*
X171717760Y-116350458D01*
X172420000Y-116350458D01*
X172420000Y-116427250D01*
X172578750Y-116586000D01*
X173703000Y-116586000D01*
X173703000Y-115936750D01*
X173544250Y-115778000D01*
X172992458Y-115778000D01*
X172869777Y-115802403D01*
X172754215Y-115850270D01*
X172650211Y-115919763D01*
X172561763Y-116008211D01*
X172492270Y-116112215D01*
X172444403Y-116227777D01*
X172420000Y-116350458D01*
X171717760Y-116350458D01*
X170769000Y-115401698D01*
X170769000Y-114908926D01*
X170958539Y-115011410D01*
X171235399Y-115097112D01*
X171523633Y-115127407D01*
X171812261Y-115101140D01*
X172090291Y-115019311D01*
X172347131Y-114885038D01*
X172573000Y-114703435D01*
X172759294Y-114481419D01*
X172898916Y-114227447D01*
X172986549Y-113951192D01*
X173018855Y-113663177D01*
X173019000Y-113642443D01*
X173019000Y-110613557D01*
X172990718Y-110325119D01*
X172906951Y-110047667D01*
X172770888Y-109791771D01*
X172587713Y-109567175D01*
X172364401Y-109382436D01*
X172109461Y-109244590D01*
X171832601Y-109158888D01*
X171544367Y-109128593D01*
X171255739Y-109154860D01*
X170977709Y-109236689D01*
X170720869Y-109370962D01*
X170495000Y-109552565D01*
X170308706Y-109774581D01*
X170169084Y-110028553D01*
X170081451Y-110304808D01*
X170049145Y-110592823D01*
X170049000Y-110613557D01*
X170049000Y-113510370D01*
X170048280Y-113509774D01*
X169767588Y-113358004D01*
X169462762Y-113263644D01*
X169145414Y-113230290D01*
X168827632Y-113259210D01*
X168521518Y-113349304D01*
X168238734Y-113497140D01*
X167990050Y-113697087D01*
X167784939Y-113941529D01*
X167631214Y-114221155D01*
X167534729Y-114525314D01*
X167499159Y-114842422D01*
X167499000Y-114865250D01*
X167499000Y-116890750D01*
X167530138Y-117208323D01*
X167622367Y-117513800D01*
X167772174Y-117795545D01*
X167973852Y-118042827D01*
X168219720Y-118246226D01*
X168500412Y-118397996D01*
X168805238Y-118492356D01*
X169122586Y-118525710D01*
X169440368Y-118496790D01*
X169746482Y-118406696D01*
X170029266Y-118258860D01*
X170277950Y-118058913D01*
X170483061Y-117814471D01*
X170636786Y-117534845D01*
X170664663Y-117446965D01*
X170844749Y-117627051D01*
X170864372Y-117733968D01*
X170931872Y-117904454D01*
X171031201Y-118058583D01*
X171158576Y-118190484D01*
X171309144Y-118295131D01*
X171477171Y-118368540D01*
X171656257Y-118407915D01*
X171839579Y-118411755D01*
X172020157Y-118379914D01*
X172191110Y-118313606D01*
X172345929Y-118215355D01*
X172416928Y-118147743D01*
X172416928Y-118283000D01*
X172424992Y-118384121D01*
X172478106Y-118555634D01*
X172515560Y-118612472D01*
X172442190Y-118775237D01*
X172416928Y-118953000D01*
X172416928Y-119553000D01*
X172422649Y-119624738D01*
X172246707Y-119588623D01*
X172063349Y-119587343D01*
X171970640Y-119605028D01*
X171945633Y-119522200D01*
X171795826Y-119240455D01*
X171594148Y-118993173D01*
X171348280Y-118789774D01*
X171067588Y-118638004D01*
X170762762Y-118543644D01*
X170445414Y-118510290D01*
X170127632Y-118539210D01*
X169821518Y-118629304D01*
X169538734Y-118777140D01*
X169290050Y-118977087D01*
X169084939Y-119221529D01*
X168931214Y-119501155D01*
X168834729Y-119805314D01*
X168799159Y-120122422D01*
X168799000Y-120145250D01*
X168799000Y-122170750D01*
X168830138Y-122488323D01*
X168922367Y-122793800D01*
X169072174Y-123075545D01*
X169273852Y-123322827D01*
X169519720Y-123526226D01*
X169800412Y-123677996D01*
X170105238Y-123772356D01*
X170422586Y-123805710D01*
X170626500Y-123787153D01*
X170626500Y-126748698D01*
X170164000Y-127211198D01*
X170164000Y-125225250D01*
X170132862Y-124907677D01*
X170040633Y-124602200D01*
X169890826Y-124320455D01*
X169689148Y-124073173D01*
X169443280Y-123869774D01*
X169162588Y-123718004D01*
X168857762Y-123623644D01*
X168540414Y-123590290D01*
X168222632Y-123619210D01*
X167916518Y-123709304D01*
X167780969Y-123780167D01*
X167530572Y-123529770D01*
X167767950Y-123338913D01*
X167973061Y-123094471D01*
X168126786Y-122814845D01*
X168223271Y-122510686D01*
X168258841Y-122193578D01*
X168259000Y-122170750D01*
X168259000Y-120145250D01*
X168227862Y-119827677D01*
X168135633Y-119522200D01*
X167985826Y-119240455D01*
X167784148Y-118993173D01*
X167538280Y-118789774D01*
X167257588Y-118638004D01*
X166952762Y-118543644D01*
X166635414Y-118510290D01*
X166317632Y-118539210D01*
X166011518Y-118629304D01*
X165728734Y-118777140D01*
X165480050Y-118977087D01*
X165352000Y-119129691D01*
X165352000Y-114808000D01*
X165345148Y-114738119D01*
X165339031Y-114668197D01*
X165337916Y-114664359D01*
X165337526Y-114660382D01*
X165317246Y-114593212D01*
X165297650Y-114525761D01*
X165295809Y-114522210D01*
X165294655Y-114518387D01*
X165261710Y-114456426D01*
X165229390Y-114394075D01*
X165226897Y-114390952D01*
X165225020Y-114387422D01*
X165180645Y-114333013D01*
X165136852Y-114278154D01*
X165131369Y-114272594D01*
X165131274Y-114272478D01*
X165131166Y-114272389D01*
X165129401Y-114270599D01*
X163351401Y-112492599D01*
X163297145Y-112448032D01*
X163243375Y-112402914D01*
X163239874Y-112400989D01*
X163236785Y-112398452D01*
X163174933Y-112365287D01*
X163113396Y-112331457D01*
X163109584Y-112330248D01*
X163106065Y-112328361D01*
X163038969Y-112307848D01*
X162972013Y-112286608D01*
X162968041Y-112286162D01*
X162964219Y-112284994D01*
X162894351Y-112277897D01*
X162824611Y-112270074D01*
X162816806Y-112270020D01*
X162816653Y-112270004D01*
X162816510Y-112270018D01*
X162814000Y-112270000D01*
X143982000Y-112270000D01*
X143912123Y-112276851D01*
X143842197Y-112282969D01*
X143838359Y-112284084D01*
X143834382Y-112284474D01*
X143767179Y-112304764D01*
X143699760Y-112324351D01*
X143696212Y-112326190D01*
X143692387Y-112327345D01*
X143630390Y-112360309D01*
X143568074Y-112392611D01*
X143564953Y-112395103D01*
X143561422Y-112396980D01*
X143507007Y-112441359D01*
X143452154Y-112485148D01*
X143446594Y-112490631D01*
X143446478Y-112490726D01*
X143446389Y-112490834D01*
X143444599Y-112492599D01*
X142255772Y-113681426D01*
X142048280Y-113509774D01*
X141767588Y-113358004D01*
X141462762Y-113263644D01*
X141145414Y-113230290D01*
X140827632Y-113259210D01*
X140521518Y-113349304D01*
X140238734Y-113497140D01*
X139990050Y-113697087D01*
X139784939Y-113941529D01*
X139631214Y-114221155D01*
X139534729Y-114525314D01*
X139499159Y-114842422D01*
X139499000Y-114865250D01*
X139499000Y-116890750D01*
X139530138Y-117208323D01*
X139622367Y-117513800D01*
X139772174Y-117795545D01*
X139973852Y-118042827D01*
X140219720Y-118246226D01*
X140500412Y-118397996D01*
X140805238Y-118492356D01*
X141122586Y-118525710D01*
X141440368Y-118496790D01*
X141746482Y-118406696D01*
X142029266Y-118258860D01*
X142277950Y-118058913D01*
X142483061Y-117814471D01*
X142636786Y-117534845D01*
X142733271Y-117230686D01*
X142768841Y-116913578D01*
X142769000Y-116890750D01*
X142769000Y-115317802D01*
X144296802Y-113790000D01*
X146412087Y-113790000D01*
X146284939Y-113941529D01*
X146131214Y-114221155D01*
X146034729Y-114525314D01*
X145999159Y-114842422D01*
X145999000Y-114865250D01*
X145999000Y-116890750D01*
X146030138Y-117208323D01*
X146122367Y-117513800D01*
X146272174Y-117795545D01*
X146473852Y-118042827D01*
X146719720Y-118246226D01*
X147000412Y-118397996D01*
X147305238Y-118492356D01*
X147622586Y-118525710D01*
X147940368Y-118496790D01*
X148246482Y-118406696D01*
X148529266Y-118258860D01*
X148777950Y-118058913D01*
X148983061Y-117814471D01*
X149136786Y-117534845D01*
X149233271Y-117230686D01*
X149268841Y-116913578D01*
X149269000Y-116890750D01*
X149269000Y-114865250D01*
X149237862Y-114547677D01*
X149145633Y-114242200D01*
X148995826Y-113960455D01*
X148856806Y-113790000D01*
X153912087Y-113790000D01*
X153784939Y-113941529D01*
X153631214Y-114221155D01*
X153534729Y-114525314D01*
X153499159Y-114842422D01*
X153499000Y-114865250D01*
X153499000Y-116890750D01*
X153530138Y-117208323D01*
X153622367Y-117513800D01*
X153772174Y-117795545D01*
X153973852Y-118042827D01*
X154219720Y-118246226D01*
X154500412Y-118397996D01*
X154805238Y-118492356D01*
X155122586Y-118525710D01*
X155440368Y-118496790D01*
X155746482Y-118406696D01*
X156029266Y-118258860D01*
X156256975Y-118075777D01*
X156466000Y-118284802D01*
X156466000Y-119126438D01*
X156260317Y-118912078D01*
X155996761Y-118727990D01*
X155702355Y-118598856D01*
X155574434Y-118567876D01*
X155321000Y-118687223D01*
X155321000Y-121031000D01*
X155341000Y-121031000D01*
X155341000Y-121285000D01*
X155321000Y-121285000D01*
X155321000Y-123628777D01*
X155574434Y-123748124D01*
X155702355Y-123717144D01*
X155996761Y-123588010D01*
X156260317Y-123403922D01*
X156482895Y-123171954D01*
X156563005Y-123046528D01*
X156588610Y-123095925D01*
X156591103Y-123099048D01*
X156592980Y-123102578D01*
X156637355Y-123156987D01*
X156681148Y-123211846D01*
X156686631Y-123217406D01*
X156686726Y-123217522D01*
X156686834Y-123217611D01*
X156688599Y-123219401D01*
X157063736Y-123594538D01*
X156792632Y-123619210D01*
X156486518Y-123709304D01*
X156203734Y-123857140D01*
X155955050Y-124057087D01*
X155749939Y-124301529D01*
X155596214Y-124581155D01*
X155499729Y-124885314D01*
X155464159Y-125202422D01*
X155464000Y-125225250D01*
X155464000Y-127250750D01*
X155495138Y-127568323D01*
X155587367Y-127873800D01*
X155737174Y-128155545D01*
X155938852Y-128402827D01*
X156184720Y-128606226D01*
X156465412Y-128757996D01*
X156770238Y-128852356D01*
X157087586Y-128885710D01*
X157405368Y-128856790D01*
X157711482Y-128766696D01*
X157930430Y-128652232D01*
X158847599Y-129569401D01*
X158901855Y-129613968D01*
X158955625Y-129659086D01*
X158959126Y-129661011D01*
X158962215Y-129663548D01*
X159024067Y-129696713D01*
X159085604Y-129730543D01*
X159089416Y-129731752D01*
X159092935Y-129733639D01*
X159160031Y-129754152D01*
X159226987Y-129775392D01*
X159230959Y-129775838D01*
X159234781Y-129777006D01*
X159304605Y-129784098D01*
X159374389Y-129791926D01*
X159382204Y-129791981D01*
X159382347Y-129791995D01*
X159382480Y-129791982D01*
X159385000Y-129792000D01*
X169418000Y-129792000D01*
X169487877Y-129785149D01*
X169557803Y-129779031D01*
X169561641Y-129777916D01*
X169565618Y-129777526D01*
X169632821Y-129757236D01*
X169700240Y-129737649D01*
X169703788Y-129735810D01*
X169707613Y-129734655D01*
X169769591Y-129701701D01*
X169831925Y-129669390D01*
X169835048Y-129666897D01*
X169838578Y-129665020D01*
X169892987Y-129620645D01*
X169947846Y-129576852D01*
X169953406Y-129571369D01*
X169953522Y-129571274D01*
X169953611Y-129571166D01*
X169955401Y-129569401D01*
X171685928Y-127838874D01*
X171685928Y-128084000D01*
X171693992Y-128185121D01*
X171747106Y-128356634D01*
X171845900Y-128506559D01*
X171982550Y-128623025D01*
X172146237Y-128696810D01*
X172324000Y-128722072D01*
X173624000Y-128722072D01*
X173725121Y-128714008D01*
X173896634Y-128660894D01*
X174046559Y-128562100D01*
X174163025Y-128425450D01*
X174236810Y-128261763D01*
X174262072Y-128084000D01*
X174262072Y-127548730D01*
X175649014Y-126161788D01*
X175649000Y-126163759D01*
X175649000Y-126166568D01*
X175646194Y-126367517D01*
X175649000Y-126382806D01*
X175649000Y-131228000D01*
X127119000Y-131228000D01*
X127119000Y-126163759D01*
X127116817Y-126141496D01*
X127119091Y-125978652D01*
X127082956Y-125796158D01*
X127078339Y-125749069D01*
X127064664Y-125703774D01*
X127037766Y-125567931D01*
X126984997Y-125439903D01*
X126957906Y-125350174D01*
X126913902Y-125267414D01*
X126896524Y-125225250D01*
X132604000Y-125225250D01*
X132604000Y-127250750D01*
X132635138Y-127568323D01*
X132727367Y-127873800D01*
X132877174Y-128155545D01*
X133078852Y-128402827D01*
X133324720Y-128606226D01*
X133605412Y-128757996D01*
X133910238Y-128852356D01*
X134227586Y-128885710D01*
X134545368Y-128856790D01*
X134851482Y-128766696D01*
X135134266Y-128618860D01*
X135382950Y-128418913D01*
X135588061Y-128174471D01*
X135741786Y-127894845D01*
X135838271Y-127590686D01*
X135873841Y-127273578D01*
X135874000Y-127250750D01*
X135874000Y-126365000D01*
X136414000Y-126365000D01*
X136414000Y-127365000D01*
X136470193Y-127681532D01*
X136587058Y-127981020D01*
X136760105Y-128251954D01*
X136982683Y-128483922D01*
X137246239Y-128668010D01*
X137540645Y-128797144D01*
X137668566Y-128828124D01*
X137922000Y-128708777D01*
X137922000Y-126365000D01*
X138176000Y-126365000D01*
X138176000Y-128708777D01*
X138429434Y-128828124D01*
X138557355Y-128797144D01*
X138851761Y-128668010D01*
X139115317Y-128483922D01*
X139337895Y-128251954D01*
X139510942Y-127981020D01*
X139627807Y-127681532D01*
X139684000Y-127365000D01*
X139684000Y-126365000D01*
X138176000Y-126365000D01*
X137922000Y-126365000D01*
X136414000Y-126365000D01*
X135874000Y-126365000D01*
X135874000Y-125225250D01*
X135862798Y-125111000D01*
X136414000Y-125111000D01*
X136414000Y-126111000D01*
X137922000Y-126111000D01*
X137922000Y-123767223D01*
X138176000Y-123767223D01*
X138176000Y-126111000D01*
X139684000Y-126111000D01*
X139684000Y-125225250D01*
X140224000Y-125225250D01*
X140224000Y-127250750D01*
X140255138Y-127568323D01*
X140347367Y-127873800D01*
X140497174Y-128155545D01*
X140698852Y-128402827D01*
X140944720Y-128606226D01*
X141225412Y-128757996D01*
X141530238Y-128852356D01*
X141847586Y-128885710D01*
X142165368Y-128856790D01*
X142471482Y-128766696D01*
X142754266Y-128618860D01*
X143002950Y-128418913D01*
X143208061Y-128174471D01*
X143361786Y-127894845D01*
X143458271Y-127590686D01*
X143493841Y-127273578D01*
X143494000Y-127250750D01*
X143494000Y-125225250D01*
X144034000Y-125225250D01*
X144034000Y-127250750D01*
X144065138Y-127568323D01*
X144157367Y-127873800D01*
X144307174Y-128155545D01*
X144508852Y-128402827D01*
X144754720Y-128606226D01*
X145035412Y-128757996D01*
X145340238Y-128852356D01*
X145657586Y-128885710D01*
X145975368Y-128856790D01*
X146281482Y-128766696D01*
X146564266Y-128618860D01*
X146812950Y-128418913D01*
X147018061Y-128174471D01*
X147171786Y-127894845D01*
X147268271Y-127590686D01*
X147303841Y-127273578D01*
X147304000Y-127250750D01*
X147304000Y-125225250D01*
X147844000Y-125225250D01*
X147844000Y-127250750D01*
X147875138Y-127568323D01*
X147967367Y-127873800D01*
X148117174Y-128155545D01*
X148318852Y-128402827D01*
X148564720Y-128606226D01*
X148845412Y-128757996D01*
X149150238Y-128852356D01*
X149467586Y-128885710D01*
X149785368Y-128856790D01*
X150091482Y-128766696D01*
X150374266Y-128618860D01*
X150622950Y-128418913D01*
X150828061Y-128174471D01*
X150981786Y-127894845D01*
X151078271Y-127590686D01*
X151113841Y-127273578D01*
X151114000Y-127250750D01*
X151114000Y-125225250D01*
X151654000Y-125225250D01*
X151654000Y-127250750D01*
X151685138Y-127568323D01*
X151777367Y-127873800D01*
X151927174Y-128155545D01*
X152128852Y-128402827D01*
X152374720Y-128606226D01*
X152655412Y-128757996D01*
X152960238Y-128852356D01*
X153277586Y-128885710D01*
X153595368Y-128856790D01*
X153901482Y-128766696D01*
X154184266Y-128618860D01*
X154432950Y-128418913D01*
X154638061Y-128174471D01*
X154791786Y-127894845D01*
X154888271Y-127590686D01*
X154923841Y-127273578D01*
X154924000Y-127250750D01*
X154924000Y-125225250D01*
X154892862Y-124907677D01*
X154800633Y-124602200D01*
X154650826Y-124320455D01*
X154449148Y-124073173D01*
X154203280Y-123869774D01*
X153922588Y-123718004D01*
X153617762Y-123623644D01*
X153300414Y-123590290D01*
X152982632Y-123619210D01*
X152676518Y-123709304D01*
X152393734Y-123857140D01*
X152145050Y-124057087D01*
X151939939Y-124301529D01*
X151786214Y-124581155D01*
X151689729Y-124885314D01*
X151654159Y-125202422D01*
X151654000Y-125225250D01*
X151114000Y-125225250D01*
X151082862Y-124907677D01*
X150990633Y-124602200D01*
X150840826Y-124320455D01*
X150639148Y-124073173D01*
X150393280Y-123869774D01*
X150112588Y-123718004D01*
X149807762Y-123623644D01*
X149490414Y-123590290D01*
X149172632Y-123619210D01*
X148866518Y-123709304D01*
X148583734Y-123857140D01*
X148335050Y-124057087D01*
X148129939Y-124301529D01*
X147976214Y-124581155D01*
X147879729Y-124885314D01*
X147844159Y-125202422D01*
X147844000Y-125225250D01*
X147304000Y-125225250D01*
X147272862Y-124907677D01*
X147180633Y-124602200D01*
X147030826Y-124320455D01*
X146829148Y-124073173D01*
X146583280Y-123869774D01*
X146302588Y-123718004D01*
X145997762Y-123623644D01*
X145680414Y-123590290D01*
X145362632Y-123619210D01*
X145056518Y-123709304D01*
X144773734Y-123857140D01*
X144525050Y-124057087D01*
X144319939Y-124301529D01*
X144166214Y-124581155D01*
X144069729Y-124885314D01*
X144034159Y-125202422D01*
X144034000Y-125225250D01*
X143494000Y-125225250D01*
X143462862Y-124907677D01*
X143370633Y-124602200D01*
X143220826Y-124320455D01*
X143019148Y-124073173D01*
X142773280Y-123869774D01*
X142492588Y-123718004D01*
X142187762Y-123623644D01*
X141870414Y-123590290D01*
X141552632Y-123619210D01*
X141246518Y-123709304D01*
X140963734Y-123857140D01*
X140715050Y-124057087D01*
X140509939Y-124301529D01*
X140356214Y-124581155D01*
X140259729Y-124885314D01*
X140224159Y-125202422D01*
X140224000Y-125225250D01*
X139684000Y-125225250D01*
X139684000Y-125111000D01*
X139627807Y-124794468D01*
X139510942Y-124494980D01*
X139337895Y-124224046D01*
X139115317Y-123992078D01*
X138851761Y-123807990D01*
X138557355Y-123678856D01*
X138429434Y-123647876D01*
X138176000Y-123767223D01*
X137922000Y-123767223D01*
X137668566Y-123647876D01*
X137540645Y-123678856D01*
X137246239Y-123807990D01*
X136982683Y-123992078D01*
X136760105Y-124224046D01*
X136587058Y-124494980D01*
X136470193Y-124794468D01*
X136414000Y-125111000D01*
X135862798Y-125111000D01*
X135842862Y-124907677D01*
X135750633Y-124602200D01*
X135600826Y-124320455D01*
X135399148Y-124073173D01*
X135153280Y-123869774D01*
X134872588Y-123718004D01*
X134567762Y-123623644D01*
X134250414Y-123590290D01*
X133932632Y-123619210D01*
X133626518Y-123709304D01*
X133343734Y-123857140D01*
X133095050Y-124057087D01*
X132889939Y-124301529D01*
X132736214Y-124581155D01*
X132639729Y-124885314D01*
X132604159Y-125202422D01*
X132604000Y-125225250D01*
X126896524Y-125225250D01*
X126878214Y-125180829D01*
X126826388Y-125102824D01*
X126762287Y-124982268D01*
X126675991Y-124876459D01*
X126646512Y-124832089D01*
X126608976Y-124794290D01*
X126498934Y-124659365D01*
X126364781Y-124548384D01*
X126351485Y-124534995D01*
X126335841Y-124524443D01*
X126177877Y-124393764D01*
X125811346Y-124195581D01*
X125413301Y-124072366D01*
X124998905Y-124028811D01*
X124583941Y-124066576D01*
X124184215Y-124184221D01*
X123814953Y-124377267D01*
X123653686Y-124506929D01*
X123639728Y-124516063D01*
X123627810Y-124527734D01*
X123490219Y-124638360D01*
X123376737Y-124773603D01*
X123340582Y-124809008D01*
X123311993Y-124850761D01*
X123222383Y-124957554D01*
X123155222Y-125079720D01*
X123104033Y-125154479D01*
X123068340Y-125237757D01*
X123021646Y-125322693D01*
X122992339Y-125415079D01*
X122939091Y-125539317D01*
X122910988Y-125671533D01*
X122895655Y-125719868D01*
X122890002Y-125770262D01*
X122852040Y-125948862D01*
X122849491Y-126131430D01*
X122849208Y-126133950D01*
X122849000Y-126163759D01*
X122849000Y-126166568D01*
X122846194Y-126367517D01*
X122849000Y-126382806D01*
X122849000Y-131228000D01*
X119494000Y-131228000D01*
X119494000Y-121285000D01*
X130699000Y-121285000D01*
X130699000Y-122285000D01*
X130755193Y-122601532D01*
X130872058Y-122901020D01*
X131045105Y-123171954D01*
X131267683Y-123403922D01*
X131531239Y-123588010D01*
X131825645Y-123717144D01*
X131953566Y-123748124D01*
X132207000Y-123628777D01*
X132207000Y-121285000D01*
X132461000Y-121285000D01*
X132461000Y-123628777D01*
X132714434Y-123748124D01*
X132842355Y-123717144D01*
X133136761Y-123588010D01*
X133400317Y-123403922D01*
X133622895Y-123171954D01*
X133795942Y-122901020D01*
X133912807Y-122601532D01*
X133969000Y-122285000D01*
X133969000Y-121285000D01*
X132461000Y-121285000D01*
X132207000Y-121285000D01*
X130699000Y-121285000D01*
X119494000Y-121285000D01*
X119494000Y-120031000D01*
X130699000Y-120031000D01*
X130699000Y-121031000D01*
X132207000Y-121031000D01*
X132207000Y-118687223D01*
X132461000Y-118687223D01*
X132461000Y-121031000D01*
X133969000Y-121031000D01*
X133969000Y-120145250D01*
X134509000Y-120145250D01*
X134509000Y-122170750D01*
X134540138Y-122488323D01*
X134632367Y-122793800D01*
X134782174Y-123075545D01*
X134983852Y-123322827D01*
X135229720Y-123526226D01*
X135510412Y-123677996D01*
X135815238Y-123772356D01*
X136132586Y-123805710D01*
X136450368Y-123776790D01*
X136756482Y-123686696D01*
X137039266Y-123538860D01*
X137287950Y-123338913D01*
X137493061Y-123094471D01*
X137646786Y-122814845D01*
X137743271Y-122510686D01*
X137778841Y-122193578D01*
X137779000Y-122170750D01*
X137779000Y-121285000D01*
X138319000Y-121285000D01*
X138319000Y-122285000D01*
X138375193Y-122601532D01*
X138492058Y-122901020D01*
X138665105Y-123171954D01*
X138887683Y-123403922D01*
X139151239Y-123588010D01*
X139445645Y-123717144D01*
X139573566Y-123748124D01*
X139827000Y-123628777D01*
X139827000Y-121285000D01*
X140081000Y-121285000D01*
X140081000Y-123628777D01*
X140334434Y-123748124D01*
X140462355Y-123717144D01*
X140756761Y-123588010D01*
X141020317Y-123403922D01*
X141242895Y-123171954D01*
X141415942Y-122901020D01*
X141532807Y-122601532D01*
X141589000Y-122285000D01*
X141589000Y-121285000D01*
X140081000Y-121285000D01*
X139827000Y-121285000D01*
X138319000Y-121285000D01*
X137779000Y-121285000D01*
X137779000Y-120145250D01*
X137767798Y-120031000D01*
X138319000Y-120031000D01*
X138319000Y-121031000D01*
X139827000Y-121031000D01*
X139827000Y-118687223D01*
X140081000Y-118687223D01*
X140081000Y-121031000D01*
X141589000Y-121031000D01*
X141589000Y-120145250D01*
X142129000Y-120145250D01*
X142129000Y-122170750D01*
X142160138Y-122488323D01*
X142252367Y-122793800D01*
X142402174Y-123075545D01*
X142603852Y-123322827D01*
X142849720Y-123526226D01*
X143130412Y-123677996D01*
X143435238Y-123772356D01*
X143752586Y-123805710D01*
X144070368Y-123776790D01*
X144376482Y-123686696D01*
X144659266Y-123538860D01*
X144907950Y-123338913D01*
X145113061Y-123094471D01*
X145266786Y-122814845D01*
X145363271Y-122510686D01*
X145398841Y-122193578D01*
X145399000Y-122170750D01*
X145399000Y-121285000D01*
X145939000Y-121285000D01*
X145939000Y-122285000D01*
X145995193Y-122601532D01*
X146112058Y-122901020D01*
X146285105Y-123171954D01*
X146507683Y-123403922D01*
X146771239Y-123588010D01*
X147065645Y-123717144D01*
X147193566Y-123748124D01*
X147447000Y-123628777D01*
X147447000Y-121285000D01*
X147701000Y-121285000D01*
X147701000Y-123628777D01*
X147954434Y-123748124D01*
X148082355Y-123717144D01*
X148376761Y-123588010D01*
X148640317Y-123403922D01*
X148862895Y-123171954D01*
X149035942Y-122901020D01*
X149152807Y-122601532D01*
X149209000Y-122285000D01*
X149209000Y-121285000D01*
X147701000Y-121285000D01*
X147447000Y-121285000D01*
X145939000Y-121285000D01*
X145399000Y-121285000D01*
X145399000Y-120145250D01*
X145387798Y-120031000D01*
X145939000Y-120031000D01*
X145939000Y-121031000D01*
X147447000Y-121031000D01*
X147447000Y-118687223D01*
X147701000Y-118687223D01*
X147701000Y-121031000D01*
X149209000Y-121031000D01*
X149209000Y-120145250D01*
X149749000Y-120145250D01*
X149749000Y-122170750D01*
X149780138Y-122488323D01*
X149872367Y-122793800D01*
X150022174Y-123075545D01*
X150223852Y-123322827D01*
X150469720Y-123526226D01*
X150750412Y-123677996D01*
X151055238Y-123772356D01*
X151372586Y-123805710D01*
X151690368Y-123776790D01*
X151996482Y-123686696D01*
X152279266Y-123538860D01*
X152527950Y-123338913D01*
X152733061Y-123094471D01*
X152886786Y-122814845D01*
X152983271Y-122510686D01*
X153018841Y-122193578D01*
X153019000Y-122170750D01*
X153019000Y-121285000D01*
X153559000Y-121285000D01*
X153559000Y-122285000D01*
X153615193Y-122601532D01*
X153732058Y-122901020D01*
X153905105Y-123171954D01*
X154127683Y-123403922D01*
X154391239Y-123588010D01*
X154685645Y-123717144D01*
X154813566Y-123748124D01*
X155067000Y-123628777D01*
X155067000Y-121285000D01*
X153559000Y-121285000D01*
X153019000Y-121285000D01*
X153019000Y-120145250D01*
X153007798Y-120031000D01*
X153559000Y-120031000D01*
X153559000Y-121031000D01*
X155067000Y-121031000D01*
X155067000Y-118687223D01*
X154813566Y-118567876D01*
X154685645Y-118598856D01*
X154391239Y-118727990D01*
X154127683Y-118912078D01*
X153905105Y-119144046D01*
X153732058Y-119414980D01*
X153615193Y-119714468D01*
X153559000Y-120031000D01*
X153007798Y-120031000D01*
X152987862Y-119827677D01*
X152895633Y-119522200D01*
X152745826Y-119240455D01*
X152544148Y-118993173D01*
X152298280Y-118789774D01*
X152017588Y-118638004D01*
X151712762Y-118543644D01*
X151395414Y-118510290D01*
X151077632Y-118539210D01*
X150771518Y-118629304D01*
X150488734Y-118777140D01*
X150240050Y-118977087D01*
X150034939Y-119221529D01*
X149881214Y-119501155D01*
X149784729Y-119805314D01*
X149749159Y-120122422D01*
X149749000Y-120145250D01*
X149209000Y-120145250D01*
X149209000Y-120031000D01*
X149152807Y-119714468D01*
X149035942Y-119414980D01*
X148862895Y-119144046D01*
X148640317Y-118912078D01*
X148376761Y-118727990D01*
X148082355Y-118598856D01*
X147954434Y-118567876D01*
X147701000Y-118687223D01*
X147447000Y-118687223D01*
X147193566Y-118567876D01*
X147065645Y-118598856D01*
X146771239Y-118727990D01*
X146507683Y-118912078D01*
X146285105Y-119144046D01*
X146112058Y-119414980D01*
X145995193Y-119714468D01*
X145939000Y-120031000D01*
X145387798Y-120031000D01*
X145367862Y-119827677D01*
X145275633Y-119522200D01*
X145125826Y-119240455D01*
X144924148Y-118993173D01*
X144678280Y-118789774D01*
X144397588Y-118638004D01*
X144092762Y-118543644D01*
X143775414Y-118510290D01*
X143457632Y-118539210D01*
X143151518Y-118629304D01*
X142868734Y-118777140D01*
X142620050Y-118977087D01*
X142414939Y-119221529D01*
X142261214Y-119501155D01*
X142164729Y-119805314D01*
X142129159Y-120122422D01*
X142129000Y-120145250D01*
X141589000Y-120145250D01*
X141589000Y-120031000D01*
X141532807Y-119714468D01*
X141415942Y-119414980D01*
X141242895Y-119144046D01*
X141020317Y-118912078D01*
X140756761Y-118727990D01*
X140462355Y-118598856D01*
X140334434Y-118567876D01*
X140081000Y-118687223D01*
X139827000Y-118687223D01*
X139573566Y-118567876D01*
X139445645Y-118598856D01*
X139151239Y-118727990D01*
X138887683Y-118912078D01*
X138665105Y-119144046D01*
X138492058Y-119414980D01*
X138375193Y-119714468D01*
X138319000Y-120031000D01*
X137767798Y-120031000D01*
X137747862Y-119827677D01*
X137655633Y-119522200D01*
X137505826Y-119240455D01*
X137304148Y-118993173D01*
X137058280Y-118789774D01*
X136777588Y-118638004D01*
X136472762Y-118543644D01*
X136155414Y-118510290D01*
X135837632Y-118539210D01*
X135531518Y-118629304D01*
X135248734Y-118777140D01*
X135000050Y-118977087D01*
X134794939Y-119221529D01*
X134641214Y-119501155D01*
X134544729Y-119805314D01*
X134509159Y-120122422D01*
X134509000Y-120145250D01*
X133969000Y-120145250D01*
X133969000Y-120031000D01*
X133912807Y-119714468D01*
X133795942Y-119414980D01*
X133622895Y-119144046D01*
X133400317Y-118912078D01*
X133136761Y-118727990D01*
X132842355Y-118598856D01*
X132714434Y-118567876D01*
X132461000Y-118687223D01*
X132207000Y-118687223D01*
X131953566Y-118567876D01*
X131825645Y-118598856D01*
X131531239Y-118727990D01*
X131267683Y-118912078D01*
X131045105Y-119144046D01*
X130872058Y-119414980D01*
X130755193Y-119714468D01*
X130699000Y-120031000D01*
X119494000Y-120031000D01*
X119494000Y-117792592D01*
X122746062Y-117792592D01*
X122825185Y-118223697D01*
X122986536Y-118631224D01*
X123223970Y-118999649D01*
X123528443Y-119314940D01*
X123888358Y-119565088D01*
X124290005Y-119740563D01*
X124718087Y-119834683D01*
X125156297Y-119843862D01*
X125587944Y-119767751D01*
X125996587Y-119609249D01*
X126366661Y-119374393D01*
X126684070Y-119072128D01*
X126936724Y-118713969D01*
X127114999Y-118313556D01*
X127212105Y-117886142D01*
X127219096Y-117385514D01*
X127133962Y-116955555D01*
X126966936Y-116550321D01*
X126724381Y-116185247D01*
X126415536Y-115874238D01*
X126052164Y-115629140D01*
X125648105Y-115459289D01*
X125218751Y-115371156D01*
X124780456Y-115368096D01*
X124349914Y-115450226D01*
X123943523Y-115614419D01*
X123576764Y-115854419D01*
X123263607Y-116161086D01*
X123015978Y-116522738D01*
X122843311Y-116925600D01*
X122752182Y-117354329D01*
X122746062Y-117792592D01*
X119494000Y-117792592D01*
X119494000Y-110709258D01*
X122746062Y-110709258D01*
X122825185Y-111140363D01*
X122986536Y-111547890D01*
X123223970Y-111916315D01*
X123528443Y-112231606D01*
X123888358Y-112481754D01*
X124290005Y-112657229D01*
X124718087Y-112751349D01*
X125156297Y-112760528D01*
X125587944Y-112684417D01*
X125996587Y-112525915D01*
X126366661Y-112291059D01*
X126684070Y-111988794D01*
X126936724Y-111630635D01*
X127114999Y-111230222D01*
X127212105Y-110802808D01*
X127214747Y-110613557D01*
X129749000Y-110613557D01*
X129749000Y-113642443D01*
X129777282Y-113930881D01*
X129861049Y-114208333D01*
X129997112Y-114464229D01*
X130180287Y-114688825D01*
X130403599Y-114873564D01*
X130658539Y-115011410D01*
X130935399Y-115097112D01*
X131223633Y-115127407D01*
X131512261Y-115101140D01*
X131790291Y-115019311D01*
X131999000Y-114910200D01*
X131999000Y-116890750D01*
X132030138Y-117208323D01*
X132122367Y-117513800D01*
X132272174Y-117795545D01*
X132473852Y-118042827D01*
X132719720Y-118246226D01*
X133000412Y-118397996D01*
X133305238Y-118492356D01*
X133622586Y-118525710D01*
X133940368Y-118496790D01*
X134246482Y-118406696D01*
X134529266Y-118258860D01*
X134777950Y-118058913D01*
X134983061Y-117814471D01*
X135136786Y-117534845D01*
X135233271Y-117230686D01*
X135268841Y-116913578D01*
X135269000Y-116890750D01*
X135269000Y-114865250D01*
X135237862Y-114547677D01*
X135145633Y-114242200D01*
X134995826Y-113960455D01*
X134794148Y-113713173D01*
X134548280Y-113509774D01*
X134267588Y-113358004D01*
X133962762Y-113263644D01*
X133645414Y-113230290D01*
X133327632Y-113259210D01*
X133021518Y-113349304D01*
X132738734Y-113497140D01*
X132719000Y-113513007D01*
X132719000Y-111001189D01*
X132775683Y-111041157D01*
X133087378Y-111179531D01*
X133237878Y-111217175D01*
X133507000Y-111099125D01*
X133507000Y-108755000D01*
X133761000Y-108755000D01*
X133761000Y-111099125D01*
X134030122Y-111217175D01*
X134180622Y-111179531D01*
X134492317Y-111041157D01*
X134771027Y-110844633D01*
X135006042Y-110597511D01*
X135188330Y-110309288D01*
X135310886Y-109991041D01*
X135369000Y-109655000D01*
X135369000Y-108755000D01*
X145899000Y-108755000D01*
X145899000Y-109655000D01*
X145957114Y-109991041D01*
X146079670Y-110309288D01*
X146261958Y-110597511D01*
X146496973Y-110844633D01*
X146775683Y-111041157D01*
X147087378Y-111179531D01*
X147237878Y-111217175D01*
X147507000Y-111099125D01*
X147507000Y-108755000D01*
X147761000Y-108755000D01*
X147761000Y-111099125D01*
X148030122Y-111217175D01*
X148180622Y-111179531D01*
X148492317Y-111041157D01*
X148771027Y-110844633D01*
X149006042Y-110597511D01*
X149188330Y-110309288D01*
X149310886Y-109991041D01*
X149369000Y-109655000D01*
X149369000Y-108755000D01*
X159899000Y-108755000D01*
X159899000Y-109655000D01*
X159957114Y-109991041D01*
X160079670Y-110309288D01*
X160261958Y-110597511D01*
X160496973Y-110844633D01*
X160775683Y-111041157D01*
X161087378Y-111179531D01*
X161237878Y-111217175D01*
X161507000Y-111099125D01*
X161507000Y-108755000D01*
X161761000Y-108755000D01*
X161761000Y-111099125D01*
X162030122Y-111217175D01*
X162180622Y-111179531D01*
X162492317Y-111041157D01*
X162771027Y-110844633D01*
X162788224Y-110826550D01*
X164243000Y-110826550D01*
X164243000Y-111228342D01*
X164267403Y-111351023D01*
X164315270Y-111466585D01*
X164384763Y-111570589D01*
X164473211Y-111659037D01*
X164577215Y-111728530D01*
X164692777Y-111776397D01*
X164815458Y-111800800D01*
X165342250Y-111800800D01*
X165501000Y-111642050D01*
X165501000Y-110667800D01*
X164401750Y-110667800D01*
X164243000Y-110826550D01*
X162788224Y-110826550D01*
X163006042Y-110597511D01*
X163188330Y-110309288D01*
X163310886Y-109991041D01*
X163334713Y-109853258D01*
X164243000Y-109853258D01*
X164243000Y-110255050D01*
X164401750Y-110413800D01*
X165501000Y-110413800D01*
X165501000Y-109439550D01*
X165342250Y-109280800D01*
X164815458Y-109280800D01*
X164692777Y-109305203D01*
X164577215Y-109353070D01*
X164473211Y-109422563D01*
X164384763Y-109511011D01*
X164315270Y-109615015D01*
X164267403Y-109730577D01*
X164243000Y-109853258D01*
X163334713Y-109853258D01*
X163369000Y-109655000D01*
X163369000Y-108755000D01*
X161761000Y-108755000D01*
X161507000Y-108755000D01*
X159899000Y-108755000D01*
X149369000Y-108755000D01*
X147761000Y-108755000D01*
X147507000Y-108755000D01*
X145899000Y-108755000D01*
X135369000Y-108755000D01*
X133761000Y-108755000D01*
X133507000Y-108755000D01*
X131899000Y-108755000D01*
X131899000Y-109293004D01*
X131809461Y-109244590D01*
X131532601Y-109158888D01*
X131244367Y-109128593D01*
X130955739Y-109154860D01*
X130677709Y-109236689D01*
X130420869Y-109370962D01*
X130195000Y-109552565D01*
X130008706Y-109774581D01*
X129869084Y-110028553D01*
X129781451Y-110304808D01*
X129749145Y-110592823D01*
X129749000Y-110613557D01*
X127214747Y-110613557D01*
X127219096Y-110302180D01*
X127133962Y-109872221D01*
X126966936Y-109466987D01*
X126724381Y-109101913D01*
X126415536Y-108790904D01*
X126052164Y-108545806D01*
X125648105Y-108375955D01*
X125218751Y-108287822D01*
X124780456Y-108284762D01*
X124349914Y-108366892D01*
X123943523Y-108531085D01*
X123576764Y-108771085D01*
X123263607Y-109077752D01*
X123015978Y-109439404D01*
X122843311Y-109842266D01*
X122752182Y-110270995D01*
X122746062Y-110709258D01*
X119494000Y-110709258D01*
X119494000Y-107601000D01*
X131899000Y-107601000D01*
X131899000Y-108501000D01*
X133507000Y-108501000D01*
X133507000Y-106156875D01*
X133761000Y-106156875D01*
X133761000Y-108501000D01*
X135369000Y-108501000D01*
X135369000Y-107601000D01*
X145899000Y-107601000D01*
X145899000Y-108501000D01*
X147507000Y-108501000D01*
X147507000Y-106156875D01*
X147761000Y-106156875D01*
X147761000Y-108501000D01*
X149369000Y-108501000D01*
X149369000Y-107601000D01*
X159899000Y-107601000D01*
X159899000Y-108501000D01*
X161507000Y-108501000D01*
X161507000Y-106156875D01*
X161761000Y-106156875D01*
X161761000Y-108501000D01*
X163369000Y-108501000D01*
X163369000Y-107601000D01*
X163310886Y-107264959D01*
X163234788Y-107067350D01*
X164143000Y-107067350D01*
X164143000Y-107494142D01*
X164167403Y-107616823D01*
X164215270Y-107732385D01*
X164284763Y-107836389D01*
X164373211Y-107924837D01*
X164477215Y-107994330D01*
X164592777Y-108042197D01*
X164715458Y-108066600D01*
X165242250Y-108066600D01*
X165401000Y-107907850D01*
X165401000Y-106908600D01*
X164301750Y-106908600D01*
X164143000Y-107067350D01*
X163234788Y-107067350D01*
X163188330Y-106946712D01*
X163006042Y-106658489D01*
X162771027Y-106411367D01*
X162492317Y-106214843D01*
X162180622Y-106076469D01*
X162150993Y-106069058D01*
X164143000Y-106069058D01*
X164143000Y-106495850D01*
X164301750Y-106654600D01*
X165401000Y-106654600D01*
X165401000Y-105655350D01*
X165655000Y-105655350D01*
X165655000Y-106654600D01*
X165675000Y-106654600D01*
X165675000Y-106908600D01*
X165655000Y-106908600D01*
X165655000Y-107907850D01*
X165813750Y-108066600D01*
X166340542Y-108066600D01*
X166463223Y-108042197D01*
X166578785Y-107994330D01*
X166682789Y-107924837D01*
X166771237Y-107836389D01*
X166840730Y-107732385D01*
X166880266Y-107636937D01*
X166901106Y-107704234D01*
X166999900Y-107854159D01*
X167136550Y-107970625D01*
X167300237Y-108044410D01*
X167393589Y-108057676D01*
X167384608Y-108085987D01*
X167384162Y-108089959D01*
X167382994Y-108093781D01*
X167375897Y-108163649D01*
X167368074Y-108233389D01*
X167368020Y-108241194D01*
X167368004Y-108241347D01*
X167368018Y-108241490D01*
X167368000Y-108244000D01*
X167368000Y-109278525D01*
X167276879Y-109285792D01*
X167105366Y-109338906D01*
X166955441Y-109437700D01*
X166880783Y-109525297D01*
X166871237Y-109511011D01*
X166782789Y-109422563D01*
X166678785Y-109353070D01*
X166563223Y-109305203D01*
X166440542Y-109280800D01*
X165913750Y-109280800D01*
X165755000Y-109439550D01*
X165755000Y-110413800D01*
X165775000Y-110413800D01*
X165775000Y-110667800D01*
X165755000Y-110667800D01*
X165755000Y-111642050D01*
X165913750Y-111800800D01*
X166440542Y-111800800D01*
X166563223Y-111776397D01*
X166678785Y-111728530D01*
X166782789Y-111659037D01*
X166871237Y-111570589D01*
X166879773Y-111557815D01*
X166899900Y-111588359D01*
X167036550Y-111704825D01*
X167200237Y-111778610D01*
X167378000Y-111803872D01*
X168878000Y-111803872D01*
X168979121Y-111795808D01*
X169150634Y-111742694D01*
X169300559Y-111643900D01*
X169417025Y-111507250D01*
X169490810Y-111343563D01*
X169516072Y-111165800D01*
X169516072Y-109915800D01*
X169508008Y-109814679D01*
X169454894Y-109643166D01*
X169356100Y-109493241D01*
X169219450Y-109376775D01*
X169055763Y-109302990D01*
X168888000Y-109279149D01*
X168888000Y-108898000D01*
X169539126Y-108898000D01*
X169625644Y-108958131D01*
X169793671Y-109031540D01*
X169972757Y-109070915D01*
X170156079Y-109074755D01*
X170336657Y-109042914D01*
X170507610Y-108976606D01*
X170662429Y-108878355D01*
X170795215Y-108751904D01*
X170900911Y-108602070D01*
X170975492Y-108434560D01*
X171016116Y-108255754D01*
X171019040Y-108046319D01*
X170983425Y-107866448D01*
X170913550Y-107696920D01*
X170812079Y-107544193D01*
X170682875Y-107414084D01*
X170530860Y-107311549D01*
X170361825Y-107240493D01*
X170242139Y-107215925D01*
X172916062Y-107215925D01*
X172995185Y-107647030D01*
X173156536Y-108054557D01*
X173393970Y-108422982D01*
X173698443Y-108738273D01*
X174058358Y-108988421D01*
X174460005Y-109163896D01*
X174888087Y-109258016D01*
X175326297Y-109267195D01*
X175757944Y-109191084D01*
X176166587Y-109032582D01*
X176329596Y-108929133D01*
X179008472Y-108929133D01*
X179070965Y-109165450D01*
X179313678Y-109278850D01*
X179573849Y-109342719D01*
X179841482Y-109354604D01*
X180106291Y-109314048D01*
X180358100Y-109222609D01*
X180465035Y-109165450D01*
X180527528Y-108929133D01*
X179768000Y-108169605D01*
X179008472Y-108929133D01*
X176329596Y-108929133D01*
X176536661Y-108797726D01*
X176854070Y-108495461D01*
X177106724Y-108137302D01*
X177139590Y-108063482D01*
X178403396Y-108063482D01*
X178443952Y-108328291D01*
X178535391Y-108580100D01*
X178592550Y-108687035D01*
X178828867Y-108749528D01*
X179588395Y-107990000D01*
X178828867Y-107230472D01*
X178592550Y-107292965D01*
X178479150Y-107535678D01*
X178415281Y-107795849D01*
X178403396Y-108063482D01*
X177139590Y-108063482D01*
X177284999Y-107736889D01*
X177382105Y-107309475D01*
X177385716Y-107050867D01*
X179008472Y-107050867D01*
X179768000Y-107810395D01*
X180527528Y-107050867D01*
X180465035Y-106814550D01*
X180222322Y-106701150D01*
X179962151Y-106637281D01*
X179694518Y-106625396D01*
X179429709Y-106665952D01*
X179177900Y-106757391D01*
X179070965Y-106814550D01*
X179008472Y-107050867D01*
X177385716Y-107050867D01*
X177389096Y-106808847D01*
X177303962Y-106378888D01*
X177136936Y-105973654D01*
X176894381Y-105608580D01*
X176585536Y-105297571D01*
X176222164Y-105052473D01*
X175818105Y-104882622D01*
X175388751Y-104794489D01*
X174950456Y-104791429D01*
X174519914Y-104873559D01*
X174113523Y-105037752D01*
X173746764Y-105277752D01*
X173433607Y-105584419D01*
X173185978Y-105946071D01*
X173013311Y-106348933D01*
X172922182Y-106777662D01*
X172916062Y-107215925D01*
X170242139Y-107215925D01*
X170182207Y-107203623D01*
X169998849Y-107202343D01*
X169818733Y-107236701D01*
X169648722Y-107305390D01*
X169616072Y-107326756D01*
X169616072Y-106131600D01*
X169608008Y-106030479D01*
X169554894Y-105858966D01*
X169456100Y-105709041D01*
X169319450Y-105592575D01*
X169155763Y-105518790D01*
X168978000Y-105493528D01*
X167478000Y-105493528D01*
X167376879Y-105501592D01*
X167205366Y-105554706D01*
X167055441Y-105653500D01*
X166938975Y-105790150D01*
X166878998Y-105923204D01*
X166840730Y-105830815D01*
X166771237Y-105726811D01*
X166682789Y-105638363D01*
X166578785Y-105568870D01*
X166463223Y-105521003D01*
X166340542Y-105496600D01*
X165813750Y-105496600D01*
X165655000Y-105655350D01*
X165401000Y-105655350D01*
X165242250Y-105496600D01*
X164715458Y-105496600D01*
X164592777Y-105521003D01*
X164477215Y-105568870D01*
X164373211Y-105638363D01*
X164284763Y-105726811D01*
X164215270Y-105830815D01*
X164167403Y-105946377D01*
X164143000Y-106069058D01*
X162150993Y-106069058D01*
X162030122Y-106038825D01*
X161761000Y-106156875D01*
X161507000Y-106156875D01*
X161237878Y-106038825D01*
X161087378Y-106076469D01*
X160775683Y-106214843D01*
X160496973Y-106411367D01*
X160261958Y-106658489D01*
X160079670Y-106946712D01*
X159957114Y-107264959D01*
X159899000Y-107601000D01*
X149369000Y-107601000D01*
X149310886Y-107264959D01*
X149188330Y-106946712D01*
X149006042Y-106658489D01*
X148771027Y-106411367D01*
X148492317Y-106214843D01*
X148180622Y-106076469D01*
X148030122Y-106038825D01*
X147761000Y-106156875D01*
X147507000Y-106156875D01*
X147237878Y-106038825D01*
X147087378Y-106076469D01*
X146775683Y-106214843D01*
X146496973Y-106411367D01*
X146261958Y-106658489D01*
X146079670Y-106946712D01*
X145957114Y-107264959D01*
X145899000Y-107601000D01*
X135369000Y-107601000D01*
X135310886Y-107264959D01*
X135188330Y-106946712D01*
X135006042Y-106658489D01*
X134771027Y-106411367D01*
X134492317Y-106214843D01*
X134180622Y-106076469D01*
X134030122Y-106038825D01*
X133761000Y-106156875D01*
X133507000Y-106156875D01*
X133237878Y-106038825D01*
X133087378Y-106076469D01*
X132775683Y-106214843D01*
X132496973Y-106411367D01*
X132261958Y-106658489D01*
X132079670Y-106946712D01*
X131957114Y-107264959D01*
X131899000Y-107601000D01*
X119494000Y-107601000D01*
X119494000Y-104148000D01*
X183274000Y-104148000D01*
X183274000Y-105841452D01*
G36*
X181017883Y-125045942D02*
X181208196Y-125243016D01*
X181433163Y-125399372D01*
X181465311Y-125413417D01*
X181397034Y-125436664D01*
X181198726Y-125542662D01*
X181090893Y-125817288D01*
X182118000Y-126844395D01*
X182132143Y-126830253D01*
X182311748Y-127009858D01*
X182297605Y-127024000D01*
X182311748Y-127038143D01*
X182132143Y-127217748D01*
X182118000Y-127203605D01*
X181090893Y-128230712D01*
X181198726Y-128505338D01*
X181505384Y-128656216D01*
X181835585Y-128744369D01*
X182176639Y-128766409D01*
X182515439Y-128721489D01*
X182838966Y-128611336D01*
X183037274Y-128505338D01*
X183145106Y-128230714D01*
X183260528Y-128346136D01*
X183274000Y-128332664D01*
X183274000Y-131228000D01*
X179919000Y-131228000D01*
X179919000Y-127082639D01*
X180375591Y-127082639D01*
X180420511Y-127421439D01*
X180530664Y-127744966D01*
X180636662Y-127943274D01*
X180911288Y-128051107D01*
X181938395Y-127024000D01*
X180911288Y-125996893D01*
X180636662Y-126104726D01*
X180485784Y-126411384D01*
X180397631Y-126741585D01*
X180375591Y-127082639D01*
X179919000Y-127082639D01*
X179919000Y-126163759D01*
X179916817Y-126141496D01*
X179919091Y-125978652D01*
X179882956Y-125796158D01*
X179878339Y-125749069D01*
X179864664Y-125703774D01*
X179837766Y-125567931D01*
X179784997Y-125439903D01*
X179757906Y-125350174D01*
X179713902Y-125267414D01*
X179678214Y-125180829D01*
X179626388Y-125102824D01*
X179562287Y-124982268D01*
X179522921Y-124934000D01*
X180945742Y-124934000D01*
X181017883Y-125045942D01*
X181017883Y-125045942D01*
G37*
X181017883Y-125045942D02*
X181208196Y-125243016D01*
X181433163Y-125399372D01*
X181465311Y-125413417D01*
X181397034Y-125436664D01*
X181198726Y-125542662D01*
X181090893Y-125817288D01*
X182118000Y-126844395D01*
X182132143Y-126830253D01*
X182311748Y-127009858D01*
X182297605Y-127024000D01*
X182311748Y-127038143D01*
X182132143Y-127217748D01*
X182118000Y-127203605D01*
X181090893Y-128230712D01*
X181198726Y-128505338D01*
X181505384Y-128656216D01*
X181835585Y-128744369D01*
X182176639Y-128766409D01*
X182515439Y-128721489D01*
X182838966Y-128611336D01*
X183037274Y-128505338D01*
X183145106Y-128230714D01*
X183260528Y-128346136D01*
X183274000Y-128332664D01*
X183274000Y-131228000D01*
X179919000Y-131228000D01*
X179919000Y-127082639D01*
X180375591Y-127082639D01*
X180420511Y-127421439D01*
X180530664Y-127744966D01*
X180636662Y-127943274D01*
X180911288Y-128051107D01*
X181938395Y-127024000D01*
X180911288Y-125996893D01*
X180636662Y-126104726D01*
X180485784Y-126411384D01*
X180397631Y-126741585D01*
X180375591Y-127082639D01*
X179919000Y-127082639D01*
X179919000Y-126163759D01*
X179916817Y-126141496D01*
X179919091Y-125978652D01*
X179882956Y-125796158D01*
X179878339Y-125749069D01*
X179864664Y-125703774D01*
X179837766Y-125567931D01*
X179784997Y-125439903D01*
X179757906Y-125350174D01*
X179713902Y-125267414D01*
X179678214Y-125180829D01*
X179626388Y-125102824D01*
X179562287Y-124982268D01*
X179522921Y-124934000D01*
X180945742Y-124934000D01*
X181017883Y-125045942D01*
G36*
X160284939Y-113941529D02*
X160131214Y-114221155D01*
X160034729Y-114525314D01*
X159999159Y-114842422D01*
X159999000Y-114865250D01*
X159999000Y-116890750D01*
X160030138Y-117208323D01*
X160122367Y-117513800D01*
X160272174Y-117795545D01*
X160473852Y-118042827D01*
X160719720Y-118246226D01*
X161000412Y-118397996D01*
X161305238Y-118492356D01*
X161622586Y-118525710D01*
X161940368Y-118496790D01*
X162246482Y-118406696D01*
X162529266Y-118258860D01*
X162777950Y-118058913D01*
X162983061Y-117814471D01*
X163136786Y-117534845D01*
X163233271Y-117230686D01*
X163268841Y-116913578D01*
X163269000Y-116890750D01*
X163269000Y-114865250D01*
X163237862Y-114547677D01*
X163229639Y-114520441D01*
X163832000Y-115122802D01*
X163832000Y-118878330D01*
X163616761Y-118727990D01*
X163322355Y-118598856D01*
X163194434Y-118567876D01*
X162941000Y-118687223D01*
X162941000Y-121031000D01*
X162961000Y-121031000D01*
X162961000Y-121285000D01*
X162941000Y-121285000D01*
X162941000Y-123628777D01*
X163194434Y-123748124D01*
X163322355Y-123717144D01*
X163616761Y-123588010D01*
X163880317Y-123403922D01*
X164102895Y-123171954D01*
X164164578Y-123075380D01*
X164692198Y-123603000D01*
X164591998Y-123603000D01*
X164591998Y-123767222D01*
X164338566Y-123647876D01*
X164210645Y-123678856D01*
X163916239Y-123807990D01*
X163652683Y-123992078D01*
X163430105Y-124224046D01*
X163257058Y-124494980D01*
X163140193Y-124794468D01*
X163084000Y-125111000D01*
X163084000Y-126111000D01*
X164592000Y-126111000D01*
X164592000Y-126091000D01*
X164846000Y-126091000D01*
X164846000Y-126111000D01*
X166354000Y-126111000D01*
X166354000Y-125111000D01*
X166297807Y-124794468D01*
X166180942Y-124494980D01*
X166157323Y-124458000D01*
X166309198Y-124458000D01*
X166910242Y-125059044D01*
X166894159Y-125202422D01*
X166894000Y-125225250D01*
X166894000Y-127250750D01*
X166925138Y-127568323D01*
X167017367Y-127873800D01*
X167167174Y-128155545D01*
X167262152Y-128272000D01*
X165988660Y-128272000D01*
X166007895Y-128251954D01*
X166180942Y-127981020D01*
X166297807Y-127681532D01*
X166354000Y-127365000D01*
X166354000Y-126365000D01*
X164846000Y-126365000D01*
X164846000Y-126385000D01*
X164592000Y-126385000D01*
X164592000Y-126365000D01*
X163084000Y-126365000D01*
X163084000Y-127365000D01*
X163140193Y-127681532D01*
X163257058Y-127981020D01*
X163430105Y-128251954D01*
X163449340Y-128272000D01*
X162176225Y-128272000D01*
X162258061Y-128174471D01*
X162411786Y-127894845D01*
X162508271Y-127590686D01*
X162543841Y-127273578D01*
X162544000Y-127250750D01*
X162544000Y-125225250D01*
X162512862Y-124907677D01*
X162420633Y-124602200D01*
X162270826Y-124320455D01*
X162069148Y-124073173D01*
X161823280Y-123869774D01*
X161542588Y-123718004D01*
X161237762Y-123623644D01*
X160920414Y-123590290D01*
X160602632Y-123619210D01*
X160296518Y-123709304D01*
X160013734Y-123857140D01*
X159765050Y-124057087D01*
X159724370Y-124105568D01*
X159376213Y-123757411D01*
X159616482Y-123686696D01*
X159899266Y-123538860D01*
X160147950Y-123338913D01*
X160353061Y-123094471D01*
X160506786Y-122814845D01*
X160603271Y-122510686D01*
X160638841Y-122193578D01*
X160639000Y-122170750D01*
X160639000Y-121285000D01*
X161179000Y-121285000D01*
X161179000Y-122285000D01*
X161235193Y-122601532D01*
X161352058Y-122901020D01*
X161525105Y-123171954D01*
X161747683Y-123403922D01*
X162011239Y-123588010D01*
X162305645Y-123717144D01*
X162433566Y-123748124D01*
X162687000Y-123628777D01*
X162687000Y-121285000D01*
X161179000Y-121285000D01*
X160639000Y-121285000D01*
X160639000Y-120145250D01*
X160627798Y-120031000D01*
X161179000Y-120031000D01*
X161179000Y-121031000D01*
X162687000Y-121031000D01*
X162687000Y-118687223D01*
X162433566Y-118567876D01*
X162305645Y-118598856D01*
X162011239Y-118727990D01*
X161747683Y-118912078D01*
X161525105Y-119144046D01*
X161352058Y-119414980D01*
X161235193Y-119714468D01*
X161179000Y-120031000D01*
X160627798Y-120031000D01*
X160607862Y-119827677D01*
X160515633Y-119522200D01*
X160365826Y-119240455D01*
X160164148Y-118993173D01*
X159918280Y-118789774D01*
X159637588Y-118638004D01*
X159332762Y-118543644D01*
X159015414Y-118510290D01*
X158697632Y-118539210D01*
X158391518Y-118629304D01*
X158108734Y-118777140D01*
X157986000Y-118875821D01*
X157986000Y-117970000D01*
X157979148Y-117900119D01*
X157973031Y-117830197D01*
X157971916Y-117826359D01*
X157971526Y-117822382D01*
X157951246Y-117755212D01*
X157931650Y-117687761D01*
X157929809Y-117684210D01*
X157928655Y-117680387D01*
X157895710Y-117618426D01*
X157863390Y-117556075D01*
X157860897Y-117552952D01*
X157859020Y-117549422D01*
X157814645Y-117495013D01*
X157770852Y-117440154D01*
X157765369Y-117434594D01*
X157765274Y-117434478D01*
X157765166Y-117434389D01*
X157763401Y-117432599D01*
X156769000Y-116438198D01*
X156769000Y-114865250D01*
X156737862Y-114547677D01*
X156645633Y-114242200D01*
X156495826Y-113960455D01*
X156356806Y-113790000D01*
X160412087Y-113790000D01*
X160284939Y-113941529D01*
X160284939Y-113941529D01*
G37*
X160284939Y-113941529D02*
X160131214Y-114221155D01*
X160034729Y-114525314D01*
X159999159Y-114842422D01*
X159999000Y-114865250D01*
X159999000Y-116890750D01*
X160030138Y-117208323D01*
X160122367Y-117513800D01*
X160272174Y-117795545D01*
X160473852Y-118042827D01*
X160719720Y-118246226D01*
X161000412Y-118397996D01*
X161305238Y-118492356D01*
X161622586Y-118525710D01*
X161940368Y-118496790D01*
X162246482Y-118406696D01*
X162529266Y-118258860D01*
X162777950Y-118058913D01*
X162983061Y-117814471D01*
X163136786Y-117534845D01*
X163233271Y-117230686D01*
X163268841Y-116913578D01*
X163269000Y-116890750D01*
X163269000Y-114865250D01*
X163237862Y-114547677D01*
X163229639Y-114520441D01*
X163832000Y-115122802D01*
X163832000Y-118878330D01*
X163616761Y-118727990D01*
X163322355Y-118598856D01*
X163194434Y-118567876D01*
X162941000Y-118687223D01*
X162941000Y-121031000D01*
X162961000Y-121031000D01*
X162961000Y-121285000D01*
X162941000Y-121285000D01*
X162941000Y-123628777D01*
X163194434Y-123748124D01*
X163322355Y-123717144D01*
X163616761Y-123588010D01*
X163880317Y-123403922D01*
X164102895Y-123171954D01*
X164164578Y-123075380D01*
X164692198Y-123603000D01*
X164591998Y-123603000D01*
X164591998Y-123767222D01*
X164338566Y-123647876D01*
X164210645Y-123678856D01*
X163916239Y-123807990D01*
X163652683Y-123992078D01*
X163430105Y-124224046D01*
X163257058Y-124494980D01*
X163140193Y-124794468D01*
X163084000Y-125111000D01*
X163084000Y-126111000D01*
X164592000Y-126111000D01*
X164592000Y-126091000D01*
X164846000Y-126091000D01*
X164846000Y-126111000D01*
X166354000Y-126111000D01*
X166354000Y-125111000D01*
X166297807Y-124794468D01*
X166180942Y-124494980D01*
X166157323Y-124458000D01*
X166309198Y-124458000D01*
X166910242Y-125059044D01*
X166894159Y-125202422D01*
X166894000Y-125225250D01*
X166894000Y-127250750D01*
X166925138Y-127568323D01*
X167017367Y-127873800D01*
X167167174Y-128155545D01*
X167262152Y-128272000D01*
X165988660Y-128272000D01*
X166007895Y-128251954D01*
X166180942Y-127981020D01*
X166297807Y-127681532D01*
X166354000Y-127365000D01*
X166354000Y-126365000D01*
X164846000Y-126365000D01*
X164846000Y-126385000D01*
X164592000Y-126385000D01*
X164592000Y-126365000D01*
X163084000Y-126365000D01*
X163084000Y-127365000D01*
X163140193Y-127681532D01*
X163257058Y-127981020D01*
X163430105Y-128251954D01*
X163449340Y-128272000D01*
X162176225Y-128272000D01*
X162258061Y-128174471D01*
X162411786Y-127894845D01*
X162508271Y-127590686D01*
X162543841Y-127273578D01*
X162544000Y-127250750D01*
X162544000Y-125225250D01*
X162512862Y-124907677D01*
X162420633Y-124602200D01*
X162270826Y-124320455D01*
X162069148Y-124073173D01*
X161823280Y-123869774D01*
X161542588Y-123718004D01*
X161237762Y-123623644D01*
X160920414Y-123590290D01*
X160602632Y-123619210D01*
X160296518Y-123709304D01*
X160013734Y-123857140D01*
X159765050Y-124057087D01*
X159724370Y-124105568D01*
X159376213Y-123757411D01*
X159616482Y-123686696D01*
X159899266Y-123538860D01*
X160147950Y-123338913D01*
X160353061Y-123094471D01*
X160506786Y-122814845D01*
X160603271Y-122510686D01*
X160638841Y-122193578D01*
X160639000Y-122170750D01*
X160639000Y-121285000D01*
X161179000Y-121285000D01*
X161179000Y-122285000D01*
X161235193Y-122601532D01*
X161352058Y-122901020D01*
X161525105Y-123171954D01*
X161747683Y-123403922D01*
X162011239Y-123588010D01*
X162305645Y-123717144D01*
X162433566Y-123748124D01*
X162687000Y-123628777D01*
X162687000Y-121285000D01*
X161179000Y-121285000D01*
X160639000Y-121285000D01*
X160639000Y-120145250D01*
X160627798Y-120031000D01*
X161179000Y-120031000D01*
X161179000Y-121031000D01*
X162687000Y-121031000D01*
X162687000Y-118687223D01*
X162433566Y-118567876D01*
X162305645Y-118598856D01*
X162011239Y-118727990D01*
X161747683Y-118912078D01*
X161525105Y-119144046D01*
X161352058Y-119414980D01*
X161235193Y-119714468D01*
X161179000Y-120031000D01*
X160627798Y-120031000D01*
X160607862Y-119827677D01*
X160515633Y-119522200D01*
X160365826Y-119240455D01*
X160164148Y-118993173D01*
X159918280Y-118789774D01*
X159637588Y-118638004D01*
X159332762Y-118543644D01*
X159015414Y-118510290D01*
X158697632Y-118539210D01*
X158391518Y-118629304D01*
X158108734Y-118777140D01*
X157986000Y-118875821D01*
X157986000Y-117970000D01*
X157979148Y-117900119D01*
X157973031Y-117830197D01*
X157971916Y-117826359D01*
X157971526Y-117822382D01*
X157951246Y-117755212D01*
X157931650Y-117687761D01*
X157929809Y-117684210D01*
X157928655Y-117680387D01*
X157895710Y-117618426D01*
X157863390Y-117556075D01*
X157860897Y-117552952D01*
X157859020Y-117549422D01*
X157814645Y-117495013D01*
X157770852Y-117440154D01*
X157765369Y-117434594D01*
X157765274Y-117434478D01*
X157765166Y-117434389D01*
X157763401Y-117432599D01*
X156769000Y-116438198D01*
X156769000Y-114865250D01*
X156737862Y-114547677D01*
X156645633Y-114242200D01*
X156495826Y-113960455D01*
X156356806Y-113790000D01*
X160412087Y-113790000D01*
X160284939Y-113941529D01*
G36*
X159274000Y-125804802D02*
X159274000Y-127250750D01*
X159305138Y-127568323D01*
X159397367Y-127873800D01*
X159506102Y-128078300D01*
X158730567Y-127302765D01*
X158733841Y-127273578D01*
X158734000Y-127250750D01*
X158734000Y-125264802D01*
X159274000Y-125804802D01*
X159274000Y-125804802D01*
G37*
X159274000Y-125804802D02*
X159274000Y-127250750D01*
X159305138Y-127568323D01*
X159397367Y-127873800D01*
X159506102Y-128078300D01*
X158730567Y-127302765D01*
X158733841Y-127273578D01*
X158734000Y-127250750D01*
X158734000Y-125264802D01*
X159274000Y-125804802D01*
G36*
X182311748Y-117309858D02*
X182297605Y-117324000D01*
X182311748Y-117338143D01*
X182132143Y-117517748D01*
X182118000Y-117503605D01*
X182103858Y-117517748D01*
X181924253Y-117338143D01*
X181938395Y-117324000D01*
X181924253Y-117309858D01*
X182103858Y-117130253D01*
X182118000Y-117144395D01*
X182132143Y-117130253D01*
X182311748Y-117309858D01*
X182311748Y-117309858D01*
G37*
X182311748Y-117309858D02*
X182297605Y-117324000D01*
X182311748Y-117338143D01*
X182132143Y-117517748D01*
X182118000Y-117503605D01*
X182103858Y-117517748D01*
X181924253Y-117338143D01*
X181938395Y-117324000D01*
X181924253Y-117309858D01*
X182103858Y-117130253D01*
X182118000Y-117144395D01*
X182132143Y-117130253D01*
X182311748Y-117309858D01*
M02*
