M48
;DRILL file {KiCad 4.0.7} date 06/10/18 23:48:30
;FORMAT={-:-/ absolute / inch / decimal}
FMAT,2
INCH,TZ
T1C0.016
T2C0.024
T3C0.031
T4C0.033
T5C0.051
T6C0.059
T7C0.067
T8C0.118
T9C0.126
%
G90
G05
M72
T1
X6.108Y-4.974
X6.2592Y-4.9818
X6.6962Y-4.2574
X6.7625Y-4.625
X6.7775Y-4.745
X6.81Y-4.9069
X6.8375Y-4.8175
X6.8975Y-4.4575
X6.9225Y-4.59
X6.955Y-4.7
X6.9757Y-4.6432
X7.0075Y-4.745
X7.01Y-4.82
X7.0825Y-4.855
T3
X7.17Y-4.7313
X7.17Y-4.81
X7.17Y-4.8887
T4
X7.0775Y-4.2516
X7.0775Y-4.4484
T5
X5.21Y-4.77
X5.2612Y-4.5621
X5.285Y-4.97
X5.36Y-4.77
X5.435Y-4.97
X5.51Y-4.77
X5.5565Y-4.5621
X5.585Y-4.97
X5.66Y-4.77
X5.735Y-4.97
X5.81Y-4.77
X5.8124Y-4.5621
X5.885Y-4.97
X5.96Y-4.77
X6.035Y-4.97
X6.1076Y-4.5621
X6.11Y-4.77
X6.185Y-4.97
X6.26Y-4.77
X6.335Y-4.97
X6.3635Y-4.5621
X6.41Y-4.77
X6.485Y-4.97
X6.56Y-4.77
X6.635Y-4.97
X6.6588Y-4.5621
X6.71Y-4.77
T6
X5.2612Y-4.2767
X5.8124Y-4.2767
X6.3635Y-4.2767
X7.17Y-4.6191
X7.17Y-5.0009
T8
X4.9206Y-4.968
X4.9206Y-5.1944
X6.9994Y-4.968
X6.9994Y-5.1944
T9
X4.9206Y-4.3512
X4.9206Y-4.6301
X6.8958Y-4.2137
T2
X7.17Y-4.2122G85X7.1976Y-4.2122
G05
X7.1976Y-4.4878G85X7.17Y-4.4878
G05
T7
X5.1667Y-4.4735G85X5.1667Y-4.3554
G05
X6.7533Y-4.4735G85X6.7533Y-4.3554
G05
T8
X4.9206Y-5.1944G85X4.9206Y-4.968
G05
X6.9994Y-5.1944G85X6.9994Y-4.968
G05
T0
M30
