G04 #@! TF.FileFunction,Legend,Bot*
%FSLAX46Y46*%
G04 Gerber Fmt 4.6, Leading zero omitted, Abs format (unit mm)*
G04 Created by KiCad (PCBNEW 4.0.7) date 06/10/18 23:46:38*
%MOMM*%
%LPD*%
G01*
G04 APERTURE LIST*
%ADD10C,0.100000*%
%ADD11C,0.075000*%
%ADD12C,0.120000*%
%ADD13C,0.150000*%
%ADD14C,0.125000*%
G04 APERTURE END LIST*
D10*
D11*
X178927427Y-115705714D02*
X179027427Y-115562857D01*
X179098855Y-115705714D02*
X179098855Y-115405714D01*
X178984570Y-115405714D01*
X178955998Y-115420000D01*
X178941713Y-115434286D01*
X178927427Y-115462857D01*
X178927427Y-115505714D01*
X178941713Y-115534286D01*
X178955998Y-115548571D01*
X178984570Y-115562857D01*
X179098855Y-115562857D01*
X178684570Y-115691429D02*
X178713141Y-115705714D01*
X178770284Y-115705714D01*
X178798855Y-115691429D01*
X178813141Y-115662857D01*
X178813141Y-115548571D01*
X178798855Y-115520000D01*
X178770284Y-115505714D01*
X178713141Y-115505714D01*
X178684570Y-115520000D01*
X178670284Y-115548571D01*
X178670284Y-115577143D01*
X178813141Y-115605714D01*
X178541712Y-115705714D02*
X178541712Y-115505714D01*
X178541712Y-115534286D02*
X178527427Y-115520000D01*
X178498855Y-115505714D01*
X178455998Y-115505714D01*
X178427427Y-115520000D01*
X178413141Y-115548571D01*
X178413141Y-115705714D01*
X178413141Y-115548571D02*
X178398855Y-115520000D01*
X178370284Y-115505714D01*
X178327427Y-115505714D01*
X178298855Y-115520000D01*
X178284570Y-115548571D01*
X178284570Y-115705714D01*
X178098855Y-115705714D02*
X178127427Y-115691429D01*
X178141712Y-115677143D01*
X178155998Y-115648571D01*
X178155998Y-115562857D01*
X178141712Y-115534286D01*
X178127427Y-115520000D01*
X178098855Y-115505714D01*
X178055998Y-115505714D01*
X178027427Y-115520000D01*
X178013141Y-115534286D01*
X177998855Y-115562857D01*
X177998855Y-115648571D01*
X178013141Y-115677143D01*
X178027427Y-115691429D01*
X178055998Y-115705714D01*
X178098855Y-115705714D01*
X177898855Y-115505714D02*
X177827426Y-115705714D01*
X177755998Y-115505714D01*
X177527427Y-115691429D02*
X177555998Y-115705714D01*
X177613141Y-115705714D01*
X177641712Y-115691429D01*
X177655998Y-115662857D01*
X177655998Y-115548571D01*
X177641712Y-115520000D01*
X177613141Y-115505714D01*
X177555998Y-115505714D01*
X177527427Y-115520000D01*
X177513141Y-115548571D01*
X177513141Y-115577143D01*
X177655998Y-115605714D01*
X177027427Y-115405714D02*
X177084570Y-115405714D01*
X177113141Y-115420000D01*
X177127427Y-115434286D01*
X177155998Y-115477143D01*
X177170284Y-115534286D01*
X177170284Y-115648571D01*
X177155998Y-115677143D01*
X177141713Y-115691429D01*
X177113141Y-115705714D01*
X177055998Y-115705714D01*
X177027427Y-115691429D01*
X177013141Y-115677143D01*
X176998856Y-115648571D01*
X176998856Y-115577143D01*
X177013141Y-115548571D01*
X177027427Y-115534286D01*
X177055998Y-115520000D01*
X177113141Y-115520000D01*
X177141713Y-115534286D01*
X177155998Y-115548571D01*
X177170284Y-115577143D01*
X176827427Y-115534286D02*
X176855999Y-115520000D01*
X176870284Y-115505714D01*
X176884570Y-115477143D01*
X176884570Y-115462857D01*
X176870284Y-115434286D01*
X176855999Y-115420000D01*
X176827427Y-115405714D01*
X176770284Y-115405714D01*
X176741713Y-115420000D01*
X176727427Y-115434286D01*
X176713142Y-115462857D01*
X176713142Y-115477143D01*
X176727427Y-115505714D01*
X176741713Y-115520000D01*
X176770284Y-115534286D01*
X176827427Y-115534286D01*
X176855999Y-115548571D01*
X176870284Y-115562857D01*
X176884570Y-115591429D01*
X176884570Y-115648571D01*
X176870284Y-115677143D01*
X176855999Y-115691429D01*
X176827427Y-115705714D01*
X176770284Y-115705714D01*
X176741713Y-115691429D01*
X176727427Y-115677143D01*
X176713142Y-115648571D01*
X176713142Y-115591429D01*
X176727427Y-115562857D01*
X176741713Y-115548571D01*
X176770284Y-115534286D01*
X176527428Y-115405714D02*
X176498856Y-115405714D01*
X176470285Y-115420000D01*
X176455999Y-115434286D01*
X176441713Y-115462857D01*
X176427428Y-115520000D01*
X176427428Y-115591429D01*
X176441713Y-115648571D01*
X176455999Y-115677143D01*
X176470285Y-115691429D01*
X176498856Y-115705714D01*
X176527428Y-115705714D01*
X176555999Y-115691429D01*
X176570285Y-115677143D01*
X176584570Y-115648571D01*
X176598856Y-115591429D01*
X176598856Y-115520000D01*
X176584570Y-115462857D01*
X176570285Y-115434286D01*
X176555999Y-115420000D01*
X176527428Y-115405714D01*
X176298856Y-115705714D02*
X176298856Y-115405714D01*
X176270285Y-115591429D02*
X176184571Y-115705714D01*
X176184571Y-115505714D02*
X176298856Y-115620000D01*
X175698857Y-115705714D02*
X175698857Y-115548571D01*
X175713143Y-115520000D01*
X175741714Y-115505714D01*
X175798857Y-115505714D01*
X175827428Y-115520000D01*
X175698857Y-115691429D02*
X175727428Y-115705714D01*
X175798857Y-115705714D01*
X175827428Y-115691429D01*
X175841714Y-115662857D01*
X175841714Y-115634286D01*
X175827428Y-115605714D01*
X175798857Y-115591429D01*
X175727428Y-115591429D01*
X175698857Y-115577143D01*
X175555999Y-115505714D02*
X175555999Y-115705714D01*
X175555999Y-115534286D02*
X175541714Y-115520000D01*
X175513142Y-115505714D01*
X175470285Y-115505714D01*
X175441714Y-115520000D01*
X175427428Y-115548571D01*
X175427428Y-115705714D01*
X175155999Y-115705714D02*
X175155999Y-115405714D01*
X175155999Y-115691429D02*
X175184570Y-115705714D01*
X175241713Y-115705714D01*
X175270285Y-115691429D01*
X175284570Y-115677143D01*
X175298856Y-115648571D01*
X175298856Y-115562857D01*
X175284570Y-115534286D01*
X175270285Y-115520000D01*
X175241713Y-115505714D01*
X175184570Y-115505714D01*
X175155999Y-115520000D01*
X174655999Y-115691429D02*
X174684570Y-115705714D01*
X174741713Y-115705714D01*
X174770285Y-115691429D01*
X174784570Y-115677143D01*
X174798856Y-115648571D01*
X174798856Y-115562857D01*
X174784570Y-115534286D01*
X174770285Y-115520000D01*
X174741713Y-115505714D01*
X174684570Y-115505714D01*
X174655999Y-115520000D01*
X174484570Y-115705714D02*
X174513142Y-115691429D01*
X174527427Y-115662857D01*
X174527427Y-115405714D01*
X174327427Y-115705714D02*
X174355999Y-115691429D01*
X174370284Y-115677143D01*
X174384570Y-115648571D01*
X174384570Y-115562857D01*
X174370284Y-115534286D01*
X174355999Y-115520000D01*
X174327427Y-115505714D01*
X174284570Y-115505714D01*
X174255999Y-115520000D01*
X174241713Y-115534286D01*
X174227427Y-115562857D01*
X174227427Y-115648571D01*
X174241713Y-115677143D01*
X174255999Y-115691429D01*
X174284570Y-115705714D01*
X174327427Y-115705714D01*
X174113141Y-115691429D02*
X174084570Y-115705714D01*
X174027427Y-115705714D01*
X173998855Y-115691429D01*
X173984570Y-115662857D01*
X173984570Y-115648571D01*
X173998855Y-115620000D01*
X174027427Y-115605714D01*
X174070284Y-115605714D01*
X174098855Y-115591429D01*
X174113141Y-115562857D01*
X174113141Y-115548571D01*
X174098855Y-115520000D01*
X174070284Y-115505714D01*
X174027427Y-115505714D01*
X173998855Y-115520000D01*
X173741713Y-115691429D02*
X173770284Y-115705714D01*
X173827427Y-115705714D01*
X173855998Y-115691429D01*
X173870284Y-115662857D01*
X173870284Y-115548571D01*
X173855998Y-115520000D01*
X173827427Y-115505714D01*
X173770284Y-115505714D01*
X173741713Y-115520000D01*
X173727427Y-115548571D01*
X173727427Y-115577143D01*
X173870284Y-115605714D01*
X173284570Y-115405714D02*
X173284570Y-115620000D01*
X173298856Y-115662857D01*
X173327427Y-115691429D01*
X173370284Y-115705714D01*
X173398856Y-115705714D01*
X173141713Y-115705714D02*
X173141713Y-115405714D01*
X173027428Y-115405714D01*
X172998856Y-115420000D01*
X172984571Y-115434286D01*
X172970285Y-115462857D01*
X172970285Y-115505714D01*
X172984571Y-115534286D01*
X172998856Y-115548571D01*
X173027428Y-115562857D01*
X173141713Y-115562857D01*
X172684571Y-115705714D02*
X172855999Y-115705714D01*
X172770285Y-115705714D02*
X172770285Y-115405714D01*
X172798856Y-115448571D01*
X172827428Y-115477143D01*
X172855999Y-115491429D01*
X172370286Y-115505714D02*
X172256000Y-115505714D01*
X172327428Y-115705714D02*
X172327428Y-115448571D01*
X172313143Y-115420000D01*
X172284571Y-115405714D01*
X172256000Y-115405714D01*
X172113142Y-115705714D02*
X172141714Y-115691429D01*
X172155999Y-115677143D01*
X172170285Y-115648571D01*
X172170285Y-115562857D01*
X172155999Y-115534286D01*
X172141714Y-115520000D01*
X172113142Y-115505714D01*
X172070285Y-115505714D01*
X172041714Y-115520000D01*
X172027428Y-115534286D01*
X172013142Y-115562857D01*
X172013142Y-115648571D01*
X172027428Y-115677143D01*
X172041714Y-115691429D01*
X172070285Y-115705714D01*
X172113142Y-115705714D01*
X171884570Y-115705714D02*
X171884570Y-115505714D01*
X171884570Y-115562857D02*
X171870285Y-115534286D01*
X171855999Y-115520000D01*
X171827428Y-115505714D01*
X171798856Y-115505714D01*
X171513143Y-115405714D02*
X171341714Y-115405714D01*
X171427428Y-115705714D02*
X171427428Y-115405714D01*
X171284572Y-115405714D02*
X171113143Y-115405714D01*
X171198857Y-115705714D02*
X171198857Y-115405714D01*
X170870286Y-115705714D02*
X171013143Y-115705714D01*
X171013143Y-115405714D01*
D12*
X177284000Y-123278000D02*
X176284000Y-123278000D01*
X176284000Y-121578000D02*
X177284000Y-121578000D01*
X167378000Y-111390800D02*
X166378000Y-111390800D01*
X166378000Y-109690800D02*
X167378000Y-109690800D01*
X173854000Y-126584000D02*
X173854000Y-125384000D01*
X172094000Y-125384000D02*
X172094000Y-126584000D01*
X167478000Y-105901600D02*
X166278000Y-105901600D01*
X166278000Y-107661600D02*
X167478000Y-107661600D01*
D13*
X174455000Y-121193000D02*
X174455000Y-121143000D01*
X178605000Y-121193000D02*
X178605000Y-121048000D01*
X178605000Y-116043000D02*
X178605000Y-116188000D01*
X174455000Y-116043000D02*
X174455000Y-116188000D01*
X174455000Y-121193000D02*
X178605000Y-121193000D01*
X174455000Y-116043000D02*
X178605000Y-116043000D01*
X174455000Y-121143000D02*
X173055000Y-121143000D01*
D10*
X177088761Y-122208952D02*
X177050666Y-122208952D01*
X177012571Y-122228000D01*
X176993523Y-122247048D01*
X176974476Y-122285143D01*
X176955428Y-122361333D01*
X176955428Y-122456571D01*
X176974476Y-122532762D01*
X176993523Y-122570857D01*
X177012571Y-122589905D01*
X177050666Y-122608952D01*
X177088761Y-122608952D01*
X177126857Y-122589905D01*
X177145904Y-122570857D01*
X177164952Y-122532762D01*
X177184000Y-122456571D01*
X177184000Y-122361333D01*
X177164952Y-122285143D01*
X177145904Y-122247048D01*
X177126857Y-122228000D01*
X177088761Y-122208952D01*
X176784000Y-122570857D02*
X176764952Y-122589905D01*
X176784000Y-122608952D01*
X176803048Y-122589905D01*
X176784000Y-122570857D01*
X176784000Y-122608952D01*
X176384000Y-122608952D02*
X176612572Y-122608952D01*
X176498286Y-122608952D02*
X176498286Y-122208952D01*
X176536381Y-122266095D01*
X176574476Y-122304190D01*
X176612572Y-122323238D01*
D13*
X167639905Y-111743181D02*
X167544666Y-111743181D01*
X167449428Y-111790800D01*
X167401809Y-111838419D01*
X167354190Y-111933657D01*
X167306571Y-112124133D01*
X167306571Y-112362229D01*
X167354190Y-112552705D01*
X167401809Y-112647943D01*
X167449428Y-112695562D01*
X167544666Y-112743181D01*
X167639905Y-112743181D01*
X167735143Y-112695562D01*
X167782762Y-112647943D01*
X167830381Y-112552705D01*
X167878000Y-112362229D01*
X167878000Y-112124133D01*
X167830381Y-111933657D01*
X167782762Y-111838419D01*
X167735143Y-111790800D01*
X167639905Y-111743181D01*
X166878000Y-112647943D02*
X166830381Y-112695562D01*
X166878000Y-112743181D01*
X166925619Y-112695562D01*
X166878000Y-112647943D01*
X166878000Y-112743181D01*
X165878000Y-112743181D02*
X166449429Y-112743181D01*
X166163715Y-112743181D02*
X166163715Y-111743181D01*
X166258953Y-111886038D01*
X166354191Y-111981276D01*
X166449429Y-112028895D01*
D14*
X174152666Y-113772190D02*
X174152666Y-114129333D01*
X174176476Y-114200762D01*
X174224095Y-114248381D01*
X174295523Y-114272190D01*
X174343142Y-114272190D01*
X173914571Y-114272190D02*
X173914571Y-113772190D01*
X173724095Y-113772190D01*
X173676476Y-113796000D01*
X173652667Y-113819810D01*
X173628857Y-113867429D01*
X173628857Y-113938857D01*
X173652667Y-113986476D01*
X173676476Y-114010286D01*
X173724095Y-114034095D01*
X173914571Y-114034095D01*
X173152667Y-114272190D02*
X173438381Y-114272190D01*
X173295524Y-114272190D02*
X173295524Y-113772190D01*
X173343143Y-113843619D01*
X173390762Y-113891238D01*
X173438381Y-113915048D01*
D10*
X172888286Y-125679239D02*
X173154952Y-125679239D01*
X172735905Y-125584001D02*
X173021619Y-125488762D01*
X173021619Y-125736382D01*
X172754952Y-125850667D02*
X172754952Y-126117334D01*
X173154952Y-125945905D01*
X172754952Y-126345905D02*
X172754952Y-126384000D01*
X172774000Y-126422095D01*
X172793048Y-126441143D01*
X172831143Y-126460190D01*
X172907333Y-126479238D01*
X173002571Y-126479238D01*
X173078762Y-126460190D01*
X173116857Y-126441143D01*
X173135905Y-126422095D01*
X173154952Y-126384000D01*
X173154952Y-126345905D01*
X173135905Y-126307809D01*
X173116857Y-126288762D01*
X173078762Y-126269714D01*
X173002571Y-126250666D01*
X172907333Y-126250666D01*
X172831143Y-126269714D01*
X172793048Y-126288762D01*
X172774000Y-126307809D01*
X172754952Y-126345905D01*
D13*
X168044666Y-104608381D02*
X168235143Y-104608381D01*
X168330381Y-104656000D01*
X168378000Y-104703619D01*
X168473238Y-104846476D01*
X168520857Y-105036952D01*
X168520857Y-105417905D01*
X168473238Y-105513143D01*
X168425619Y-105560762D01*
X168330381Y-105608381D01*
X168139904Y-105608381D01*
X168044666Y-105560762D01*
X167997047Y-105513143D01*
X167949428Y-105417905D01*
X167949428Y-105179810D01*
X167997047Y-105084571D01*
X168044666Y-105036952D01*
X168139904Y-104989333D01*
X168330381Y-104989333D01*
X168425619Y-105036952D01*
X168473238Y-105084571D01*
X168520857Y-105179810D01*
X167378000Y-105036952D02*
X167473238Y-104989333D01*
X167520857Y-104941714D01*
X167568476Y-104846476D01*
X167568476Y-104798857D01*
X167520857Y-104703619D01*
X167473238Y-104656000D01*
X167378000Y-104608381D01*
X167187523Y-104608381D01*
X167092285Y-104656000D01*
X167044666Y-104703619D01*
X166997047Y-104798857D01*
X166997047Y-104846476D01*
X167044666Y-104941714D01*
X167092285Y-104989333D01*
X167187523Y-105036952D01*
X167378000Y-105036952D01*
X167473238Y-105084571D01*
X167520857Y-105132190D01*
X167568476Y-105227429D01*
X167568476Y-105417905D01*
X167520857Y-105513143D01*
X167473238Y-105560762D01*
X167378000Y-105608381D01*
X167187523Y-105608381D01*
X167092285Y-105560762D01*
X167044666Y-105513143D01*
X166997047Y-105417905D01*
X166997047Y-105227429D01*
X167044666Y-105132190D01*
X167092285Y-105084571D01*
X167187523Y-105036952D01*
X166378000Y-104608381D02*
X166282761Y-104608381D01*
X166187523Y-104656000D01*
X166139904Y-104703619D01*
X166092285Y-104798857D01*
X166044666Y-104989333D01*
X166044666Y-105227429D01*
X166092285Y-105417905D01*
X166139904Y-105513143D01*
X166187523Y-105560762D01*
X166282761Y-105608381D01*
X166378000Y-105608381D01*
X166473238Y-105560762D01*
X166520857Y-105513143D01*
X166568476Y-105417905D01*
X166616095Y-105227429D01*
X166616095Y-104989333D01*
X166568476Y-104798857D01*
X166520857Y-104703619D01*
X166473238Y-104656000D01*
X166378000Y-104608381D01*
X165616095Y-105608381D02*
X165616095Y-104608381D01*
X165520857Y-105227429D02*
X165235142Y-105608381D01*
X165235142Y-104941714D02*
X165616095Y-105322667D01*
D10*
X176888666Y-118798952D02*
X177079142Y-118798952D01*
X177079142Y-118398952D01*
X176755332Y-118798952D02*
X176755332Y-118398952D01*
X176621999Y-118684667D01*
X176488665Y-118398952D01*
X176488665Y-118798952D01*
X176088665Y-118798952D02*
X176317237Y-118798952D01*
X176202951Y-118798952D02*
X176202951Y-118398952D01*
X176241046Y-118456095D01*
X176279141Y-118494190D01*
X176317237Y-118513238D01*
X175860094Y-118570381D02*
X175898189Y-118551333D01*
X175917237Y-118532286D01*
X175936285Y-118494190D01*
X175936285Y-118475143D01*
X175917237Y-118437048D01*
X175898189Y-118418000D01*
X175860094Y-118398952D01*
X175783904Y-118398952D01*
X175745808Y-118418000D01*
X175726761Y-118437048D01*
X175707713Y-118475143D01*
X175707713Y-118494190D01*
X175726761Y-118532286D01*
X175745808Y-118551333D01*
X175783904Y-118570381D01*
X175860094Y-118570381D01*
X175898189Y-118589429D01*
X175917237Y-118608476D01*
X175936285Y-118646571D01*
X175936285Y-118722762D01*
X175917237Y-118760857D01*
X175898189Y-118779905D01*
X175860094Y-118798952D01*
X175783904Y-118798952D01*
X175745808Y-118779905D01*
X175726761Y-118760857D01*
X175707713Y-118722762D01*
X175707713Y-118646571D01*
X175726761Y-118608476D01*
X175745808Y-118589429D01*
X175783904Y-118570381D01*
X175479142Y-118570381D02*
X175517237Y-118551333D01*
X175536285Y-118532286D01*
X175555333Y-118494190D01*
X175555333Y-118475143D01*
X175536285Y-118437048D01*
X175517237Y-118418000D01*
X175479142Y-118398952D01*
X175402952Y-118398952D01*
X175364856Y-118418000D01*
X175345809Y-118437048D01*
X175326761Y-118475143D01*
X175326761Y-118494190D01*
X175345809Y-118532286D01*
X175364856Y-118551333D01*
X175402952Y-118570381D01*
X175479142Y-118570381D01*
X175517237Y-118589429D01*
X175536285Y-118608476D01*
X175555333Y-118646571D01*
X175555333Y-118722762D01*
X175536285Y-118760857D01*
X175517237Y-118779905D01*
X175479142Y-118798952D01*
X175402952Y-118798952D01*
X175364856Y-118779905D01*
X175345809Y-118760857D01*
X175326761Y-118722762D01*
X175326761Y-118646571D01*
X175345809Y-118608476D01*
X175364856Y-118589429D01*
X175402952Y-118570381D01*
X174945809Y-118798952D02*
X175174381Y-118798952D01*
X175060095Y-118798952D02*
X175060095Y-118398952D01*
X175098190Y-118456095D01*
X175136285Y-118494190D01*
X175174381Y-118513238D01*
M02*
