G04 #@! TF.FileFunction,Soldermask,Top*
%FSLAX46Y46*%
G04 Gerber Fmt 4.6, Leading zero omitted, Abs format (unit mm)*
G04 Created by KiCad (PCBNEW 4.0.7) date 06/10/18 23:46:38*
%MOMM*%
%LPD*%
G01*
G04 APERTURE LIST*
%ADD10C,0.100000*%
%ADD11C,2.600000*%
%ADD12C,1.924000*%
%ADD13R,2.300000X1.900000*%
%ADD14C,1.850000*%
%ADD15R,1.750000X0.800000*%
%ADD16O,2.300000X1.600000*%
%ADD17R,2.300000X1.600000*%
%ADD18O,3.400000X9.150000*%
%ADD19C,3.400000*%
%ADD20O,2.400000X4.400000*%
%ADD21O,2.600000X4.400000*%
%ADD22O,2.100000X5.100000*%
%ADD23C,3.600000*%
G04 APERTURE END LIST*
D10*
D11*
X182118000Y-127024000D03*
D12*
X182118000Y-122174000D03*
X182118000Y-120174000D03*
X182118000Y-124174000D03*
D11*
X182118000Y-117324000D03*
D13*
X182468000Y-109490000D03*
D14*
X179768000Y-112990000D03*
D15*
X179768000Y-111140000D03*
X179768000Y-111790000D03*
X179768000Y-109190000D03*
X179768000Y-109840000D03*
X179768000Y-110490000D03*
D14*
X179768000Y-107990000D03*
D13*
X182468000Y-111490000D03*
D16*
X182468000Y-113990000D03*
X182468000Y-106990000D03*
D17*
X182468000Y-107590000D03*
X182468000Y-113390000D03*
D18*
X177784000Y-129063000D03*
D19*
X124984000Y-126188000D03*
X177784000Y-126188000D03*
X177784000Y-131938000D03*
D20*
X153289000Y-126238000D03*
X149479000Y-126238000D03*
X145669000Y-126238000D03*
X151384000Y-121158000D03*
X147574000Y-121158000D03*
X143764000Y-121158000D03*
X141859000Y-126238000D03*
X139954000Y-121158000D03*
X138049000Y-126238000D03*
X136144000Y-121158000D03*
X134239000Y-126238000D03*
X132334000Y-121158000D03*
X170434000Y-121158000D03*
X168529000Y-126238000D03*
X166624000Y-121158000D03*
X164719000Y-126238000D03*
X162814000Y-121158000D03*
X160909000Y-126238000D03*
X159004000Y-121158000D03*
X157099000Y-126238000D03*
X155194000Y-121158000D03*
D19*
X124984000Y-131938000D03*
D18*
X124984000Y-129063000D03*
D21*
X133634000Y-108628000D03*
X147634000Y-108628000D03*
X161634000Y-108628000D03*
D20*
X133634000Y-115878000D03*
X141134000Y-115878000D03*
X169134000Y-115878000D03*
X161634000Y-115878000D03*
X155134000Y-115878000D03*
X147634000Y-115878000D03*
D22*
X171534000Y-112128000D03*
X131234000Y-112128000D03*
D23*
X124984000Y-117604667D03*
X124984000Y-110521333D03*
X175154000Y-107028000D03*
M02*
