G04 #@! TF.FileFunction,Soldermask,Bot*
%FSLAX46Y46*%
G04 Gerber Fmt 4.6, Leading zero omitted, Abs format (unit mm)*
G04 Created by KiCad (PCBNEW 4.0.7) date 06/10/18 23:46:38*
%MOMM*%
%LPD*%
G01*
G04 APERTURE LIST*
%ADD10C,0.100000*%
%ADD11C,2.600000*%
%ADD12C,1.924000*%
%ADD13R,1.900000X1.650000*%
%ADD14C,1.850000*%
%ADD15O,2.300000X1.600000*%
%ADD16O,3.400000X9.150000*%
%ADD17C,3.400000*%
%ADD18O,2.400000X4.400000*%
%ADD19R,1.700000X1.900000*%
%ADD20R,1.900000X1.700000*%
%ADD21O,2.600000X4.400000*%
%ADD22O,2.100000X5.100000*%
%ADD23R,1.950000X1.000000*%
%ADD24C,3.600000*%
G04 APERTURE END LIST*
D10*
D11*
X182118000Y-127024000D03*
D12*
X182118000Y-122174000D03*
X182118000Y-120174000D03*
X182118000Y-124174000D03*
D11*
X182118000Y-117324000D03*
D13*
X175534000Y-122428000D03*
X178034000Y-122428000D03*
X165628000Y-110540800D03*
X168128000Y-110540800D03*
D14*
X179768000Y-112990000D03*
X179768000Y-107990000D03*
D15*
X182468000Y-113990000D03*
X182468000Y-106990000D03*
D16*
X177784000Y-129063000D03*
D17*
X124984000Y-126188000D03*
X177784000Y-126188000D03*
X177784000Y-131938000D03*
D18*
X153289000Y-126238000D03*
X149479000Y-126238000D03*
X145669000Y-126238000D03*
X151384000Y-121158000D03*
X147574000Y-121158000D03*
X143764000Y-121158000D03*
X141859000Y-126238000D03*
X139954000Y-121158000D03*
X138049000Y-126238000D03*
X136144000Y-121158000D03*
X134239000Y-126238000D03*
X132334000Y-121158000D03*
X170434000Y-121158000D03*
X168529000Y-126238000D03*
X166624000Y-121158000D03*
X164719000Y-126238000D03*
X162814000Y-121158000D03*
X160909000Y-126238000D03*
X159004000Y-121158000D03*
X157099000Y-126238000D03*
X155194000Y-121158000D03*
D17*
X124984000Y-131938000D03*
D16*
X124984000Y-129063000D03*
D10*
G36*
X174512196Y-114957330D02*
X176933330Y-112536196D01*
X177233143Y-114957330D01*
X176933330Y-115257143D01*
X174512196Y-114957330D01*
X174512196Y-114957330D01*
G37*
G36*
X177023804Y-112626670D02*
X174602670Y-115047804D01*
X174302857Y-112626670D01*
X174602670Y-112326857D01*
X177023804Y-112626670D01*
X177023804Y-112626670D01*
G37*
D19*
X172974000Y-124634000D03*
X172974000Y-127334000D03*
D20*
X165528000Y-106781600D03*
X168228000Y-106781600D03*
D21*
X133634000Y-108628000D03*
X147634000Y-108628000D03*
X161634000Y-108628000D03*
D18*
X133634000Y-115878000D03*
X141134000Y-115878000D03*
X169134000Y-115878000D03*
X161634000Y-115878000D03*
X155134000Y-115878000D03*
X147634000Y-115878000D03*
D22*
X171534000Y-112128000D03*
X131234000Y-112128000D03*
D23*
X173830000Y-120523000D03*
X173830000Y-119253000D03*
X173830000Y-117983000D03*
X173830000Y-116713000D03*
X179230000Y-116713000D03*
X179230000Y-117983000D03*
X179230000Y-119253000D03*
X179230000Y-120523000D03*
D24*
X124984000Y-117604667D03*
X124984000Y-110521333D03*
X175154000Y-107028000D03*
M02*
